<?xml version="1.0" encoding="UTF-8"?>
<!DOCTYPE svg PUBLIC "-//W3C//DTD SVG 1.1//EN" "http://www.w3.org/Graphics/SVG/1.1/DTD/svg11.dtd">
<!-- Creator: CorelDRAW X7 -->
<svg xmlns="http://www.w3.org/2000/svg" xml:space="preserve" width="194.733mm" height="59.2666mm" version="1.1" style="shape-rendering:geometricPrecision; text-rendering:geometricPrecision; image-rendering:optimizeQuality; fill-rule:evenodd; clip-rule:evenodd"
viewBox="0 0 19473 5927"
 xmlns:xlink="http://www.w3.org/1999/xlink">
 <defs>
  <style type="text/css">
   <![CDATA[
    .fil0 {fill:#FEFEFE}
    .fil10 {fill:#332C2B}
    .fil1 {fill:#00A2E9}
    .fil6 {fill:#0E7886}
    .fil2 {fill:#15BDB1}
    .fil9 {fill:#20D0C2}
    .fil4 {fill:#656767}
    .fil5 {fill:#C8CACB}
    .fil7 {fill:#DFE1E1}
    .fil8 {fill:#FBB42A}
    .fil3 {fill:#FDFEFE}
   ]]>
  </style>
 </defs>
 <g id="Layer_x0020_1">
  <metadata id="CorelCorpID_0Corel-Layer"/>
  <rect class="fil0" width="19473" height="5335"/>
  <g id="_1298495875312">
   <g>
    <path class="fil1" d="M680 1066c162,-9 290,-26 417,48l29 1c360,-126 566,-3 926,0l61 2 34 -1 0 351c58,16 1220,6 1385,6 152,0 292,-9 326,135 16,68 7,1743 5,1835 1,63 9,198 -12,250 -21,52 -80,105 -147,106 -37,24 -1032,10 -1169,10 11,58 30,119 44,177 22,85 15,91 73,137l226 195c1,1 2,4 2,5 1,1 2,4 3,6l3 40 -1307 -1 8 -50c28,-37 78,-74 117,-104 155,-119 153,-117 183,-234 14,-57 32,-115 43,-171 -137,0 -1133,14 -1169,-10 -70,-1 -130,-58 -150,-112 -17,-50 -11,-184 -9,-244l-5 -983 -544 -1 0 -262 -10 25c-22,74 -37,225 -43,362l0 210c1,14 2,26 4,36 20,136 10,136 43,305 35,174 102,363 180,518 41,82 78,145 125,223l187 250c106,119 102,115 213,214 31,28 62,56 94,81 68,52 127,95 205,143 39,23 72,44 109,65 36,21 76,39 116,59 423,212 977,268 1474,154 189,-43 350,-110 503,-186 115,-58 219,-126 321,-202 18,-14 31,-22 50,-37 143,-113 278,-252 387,-398 274,-366 429,-791 454,-1230l0 -243c-14,-237 -65,-475 -157,-707 -43,-108 -168,-363 -244,-450 -23,20 -45,79 -157,87 -131,10 -266,-38 -299,-175 -16,-70 2,-166 -15,-220 -33,-15 -30,-19 -79,-17 -2,2 -3,5 -5,7 -41,60 -91,132 -156,171 -81,48 -172,25 -247,-15 -183,-99 -135,-205 -117,-333 12,-81 -25,-51 7,-129l28 -5c4,0 18,2 22,2 18,3 37,7 53,10l267 82c150,52 154,127 331,134 -31,-59 -238,-186 -300,-226 -104,-69 -225,-125 -349,-175 -134,-53 -254,-85 -407,-116 -92,-19 -185,-30 -277,-36l-238 0c-282,16 -561,87 -821,198 -194,84 -394,221 -553,362 -32,29 -50,32 -72,71z"/>
    <path class="fil2" d="M2147 1926c327,-33 544,126 656,328 63,115 92,271 64,420 -77,405 -526,644 -919,444 -206,-106 -365,-326 -335,-658l-890 -1 -3 865 3030 0c-4,-215 7,-1642 -16,-1715 -70,-35 -981,-17 -1188,-17 -94,0 -321,-11 -399,5l0 329z"/>
    <path class="fil3" d="M149 1116l-2 1211 952 0 -2 -1213c-127,-74 -255,-57 -417,-48 -35,-4 -320,39 -392,41 -59,1 -86,9 -139,9z"/>
    <path class="fil3" d="M761 3799c488,-1 984,8 1471,8 487,0 984,-9 1472,-8 67,-1 126,-54 147,-106 21,-52 13,-187 12,-250l-3261 0c-2,60 -8,194 9,244 20,54 80,111 150,112z"/>
    <path class="fil3" d="M1126 1115l-2 1212 925 0 3 -1212c-360,-3 -566,-126 -926,0z"/>
    <path class="fil3" d="M2147 1926l0 105c23,-13 56,-43 81,-48l0 276 -81 -1 1 31 80 1 1 250 -324 0 6 -80 -29 0 -6 80 -240 0 7 -79 -30 -1c-30,332 129,552 335,658 393,200 842,-39 919,-444 28,-149 -1,-305 -64,-420 -112,-202 -329,-361 -656,-328z"/>
    <path class="fil4" d="M2147 1597c78,-16 305,-5 399,-5 207,0 1118,-18 1188,17 23,73 12,1500 16,1715l-3030 0 3 -865 -126 1 5 983 3261 0c2,-92 11,-1767 -5,-1835 -34,-144 -174,-135 -326,-135 -165,0 -1327,10 -1385,-6l0 130z"/>
    <path class="fil5" d="M1587 4318l1291 0 -226 -195c-58,-46 -51,-52 -73,-137 -14,-58 -33,-119 -44,-177 137,0 1132,14 1169,-10 -488,-1 -985,8 -1472,8 -487,0 -983,-9 -1471,-8 36,24 1032,10 1169,10 -11,56 -29,114 -43,171 -30,117 -28,115 -183,234 -39,30 -89,67 -117,104z"/>
    <path class="fil6" d="M4064 1389l65 -121c8,-12 9,-15 20,-24l11 -6c1,-1 4,-2 5,-3 24,-18 30,-40 38,-76 -35,-8 -81,-37 -113,-52 -36,-18 -87,-37 -124,-51 -52,-20 -207,-78 -269,-68 -177,-7 -181,-82 -331,-134l-267 -82c-16,-3 -35,-7 -53,-10 -4,0 -18,-2 -22,-2l-28 5c-32,78 5,48 -7,129 -18,128 -66,234 117,333 75,40 166,63 247,15 65,-39 115,-111 156,-171 2,-2 3,-5 5,-7 49,-2 46,2 79,17 17,54 -1,150 15,220 33,137 168,185 299,175 112,-8 134,-67 157,-87z"/>
    <polygon class="fil7" points="2113,1117 2052,1115 2049,2327 1124,2327 1126,1115 1097,1114 1099,2327 147,2327 149,1116 88,1116 87,2408 2114,2408 "/>
    <polygon class="fil8" points="53,2197 53,2459 597,2460 723,2459 1613,2460 1643,2461 1882,2460 1911,2460 2147,2460 2148,2289 2147,2258 2147,2031 2147,1926 2147,1597 2147,1467 2147,1116 2113,1117 2114,2408 87,2408 88,1116 51,1116 "/>
    <path class="fil8" d="M4001 1865l0 536 152 0c1,-76 -12,-442 6,-481 18,6 18,-13 18,33l0 340c0,47 -10,31 -19,72 66,-17 41,-146 41,-212 0,-84 1,-169 -1,-253l-45 -9c0,-32 -2,-63 -11,-87l-78 -9c-54,0 -63,17 -63,70z"/>
    <polygon class="fil9" points="4013,3123 4141,3122 4142,2402 4012,2402 "/>
    <path class="fil7" d="M4078 1236c3,-33 13,-8 -17,-25l-244 -56c11,62 39,177 2,238l-36 -14c-17,-83 104,-198 -139,-249 -12,176 15,260 173,294 67,15 142,10 183,-32 25,-27 78,-119 78,-156z"/>
    <path class="fil7" d="M3456 1061l-151 -31c-65,11 -61,166 -140,138 -14,-31 -4,-28 17,-54 42,-53 61,-102 119,-126 -2,-2 -4,-4 -6,-5 -39,-34 -64,-36 -121,-61 -40,-19 -85,-42 -132,-51 -11,48 -38,165 -20,213 30,80 209,191 319,112 35,-25 96,-88 115,-135z"/>
    <path class="fil2" d="M2257 2293l0 247 322 0c-6,-129 -32,-168 -55,-269l-267 22z"/>
    <path class="fil2" d="M1962 2818l266 -22 0 -227 -323 0c4,84 14,191 57,249z"/>
    <path class="fil2" d="M2257 2798l274 19c19,-90 42,-133 48,-245l-33 -3 -289 0 0 229z"/>
    <path class="fil2" d="M2555 2267c9,72 44,87 53,272l240 1c-9,-130 -42,-246 -110,-330 -26,7 -152,44 -183,57z"/>
    <path class="fil2" d="M1732 2889c70,-30 117,-47 195,-64 -26,-96 -45,-143 -50,-256l-241 0c16,220 60,211 96,320z"/>
    <path class="fil2" d="M2558 2822c33,15 60,17 95,27 33,10 65,27 94,37 59,-64 93,-205 102,-313l-241 -4c-5,108 -20,163 -50,253z"/>
    <path class="fil3" d="M2878 4318l-1291 0 -8 50 1307 1 -3 -40c-1,-2 -2,-5 -3,-6 0,-1 -1,-4 -2,-5z"/>
    <path class="fil2" d="M2280 3159c144,-8 268,-65 368,-154 23,-20 68,-67 81,-96 -64,-25 -107,-41 -183,-56 -42,66 -61,111 -110,167l-140 123c-14,12 -5,2 -16,16z"/>
    <path class="fil2" d="M1755 2912c67,103 251,251 450,245 -33,-44 -136,-83 -214,-213 -13,-22 -40,-72 -55,-89 -64,11 -130,31 -181,57z"/>
    <path class="fil2" d="M1975 2844c4,47 72,131 96,159 35,41 103,103 157,124l0 -300 -253 17z"/>
    <path class="fil5" d="M3042 871c47,9 92,32 132,51 57,25 82,27 121,61 2,1 4,3 6,5 -58,24 -77,73 -119,126 -21,26 -31,23 -17,54 79,28 75,-127 140,-138l151 31c21,-37 12,-52 9,-99 -100,-44 -194,-106 -319,-124 -63,-9 -69,3 -104,33z"/>
    <path class="fil2" d="M2257 3129c62,-32 109,-77 150,-121 28,-29 97,-117 102,-162l-252 -21 0 304z"/>
    <path class="fil5" d="M3644 1130c243,51 122,166 139,249l36 14c37,-61 9,-176 -2,-238l244 56c30,17 20,-8 17,25 70,-65 -133,-136 -193,-153 -49,-14 -99,-28 -151,-33 -60,-6 -76,27 -90,80z"/>
    <path class="fil2" d="M2539 2237c29,-7 58,-12 89,-20l88 -38c-92,-112 -271,-242 -437,-226 17,19 50,37 73,54 29,23 45,40 72,67 45,45 76,104 115,163z"/>
    <path class="fil2" d="M2257 2261l242 -15c1,-40 -73,-125 -96,-150 -30,-34 -97,-96 -144,-116l-2 281z"/>
    <polygon class="fil2" points="1911,2460 1905,2540 2229,2540 2228,2290 2148,2289 2147,2460 "/>
    <polygon class="fil9" points="229,1252 736,1253 738,1188 229,1183 "/>
    <path class="fil2" d="M2147 2031l0 227 81 1 0 -276c-25,5 -58,35 -81,48z"/>
    <polygon class="fil2" points="1882,2460 1643,2461 1636,2540 1876,2540 "/>
    <path class="fil8" d="M4141 3122l-128 1c8,31 17,64 24,95 14,63 1,65 66,65l38 -161z"/>
   </g>
   <g>
    <path class="fil10" d="M6689 4092l0 -354 72 0 0 354 -72 0zm187 0l0 -354 69 0 146 237 0 -237 66 0 0 354 -71 0 -144 -233 0 233 -66 0zm404 0l0 -354 243 0 0 60 -172 0 0 84 149 0 0 60 -149 0 0 150 -71 0zm334 -175c0,-36 5,-66 16,-91 8,-18 19,-34 33,-48 14,-15 29,-25 45,-32 23,-10 48,-14 77,-14 52,0 94,16 125,48 32,33 47,78 47,135 0,58 -15,103 -46,135 -31,32 -73,48 -125,48 -53,0 -95,-16 -126,-48 -31,-32 -46,-76 -46,-133zm73 -2c0,40 10,70 28,91 19,21 42,31 71,31 28,0 52,-10 70,-31 18,-20 28,-51 28,-92 0,-41 -9,-71 -27,-91 -18,-20 -42,-30 -71,-30 -30,0 -54,10 -72,30 -18,20 -27,51 -27,92zm776 134l-41 52c-20,-9 -39,-23 -58,-40 -14,13 -29,22 -45,28 -16,6 -35,9 -58,9 -44,0 -77,-12 -99,-37 -17,-19 -26,-41 -26,-66 0,-23 7,-43 20,-61 14,-18 34,-34 61,-48 -12,-14 -21,-28 -27,-41 -6,-13 -9,-25 -9,-36 0,-22 8,-40 25,-55 17,-15 42,-22 73,-22 31,0 55,7 72,23 17,16 26,35 26,57 0,15 -4,28 -13,41 -8,13 -25,27 -51,44l49 65c5,-10 10,-23 15,-40l61 14c-6,22 -11,38 -16,48 -4,10 -9,18 -14,25 7,7 17,15 29,23 12,9 21,14 26,17zm-184 -193l18 -14c13,-10 20,-21 20,-31 0,-9 -3,-16 -10,-22 -6,-6 -15,-9 -26,-9 -11,0 -19,2 -25,8 -6,5 -9,11 -9,18 0,9 5,19 15,31l17 19zm-27 74c-15,8 -27,18 -35,29 -7,11 -11,22 -11,34 0,14 5,26 14,36 10,9 22,14 38,14 11,0 21,-2 31,-7 10,-4 20,-11 32,-21l-69 -85zm473 162l0 -294 -105 0 0 -60 281 0 0 60 -105 0 0 294 -71 0zm266 0l0 -354 72 0 0 354 -72 0zm187 0l0 -354 114 0c44,0 72,2 85,5 21,6 38,17 51,35 14,18 21,41 21,69 0,22 -4,40 -12,55 -8,15 -18,26 -30,35 -12,8 -25,14 -37,16 -17,4 -42,6 -74,6l-47 0 0 133 -71 0zm71 -294l0 101 39 0c29,0 47,-2 57,-6 9,-4 17,-9 22,-17 5,-8 8,-17 8,-28 0,-13 -4,-24 -11,-32 -8,-8 -17,-14 -29,-16 -8,-1 -25,-2 -51,-2l-35 0zm286 179l70 -7c4,24 13,41 26,52 12,11 30,16 51,16 23,0 40,-5 52,-14 12,-10 18,-22 18,-35 0,-8 -3,-15 -8,-21 -5,-6 -13,-11 -25,-15 -9,-3 -28,-8 -57,-16 -38,-9 -65,-21 -81,-35 -21,-19 -32,-43 -32,-71 0,-18 5,-35 15,-51 10,-16 25,-28 44,-36 19,-8 42,-12 70,-12 44,0 77,9 100,29 22,20 34,46 35,79l-72 2c-3,-18 -9,-31 -19,-39 -10,-8 -25,-12 -45,-12 -21,0 -37,4 -49,13 -7,5 -11,13 -11,22 0,8 4,15 11,21 9,8 31,16 65,24 35,8 61,17 77,26 17,8 30,20 39,36 10,15 14,34 14,56 0,20 -5,39 -17,57 -11,18 -27,31 -47,40 -21,8 -47,12 -77,12 -45,0 -80,-10 -104,-31 -24,-20 -38,-50 -43,-90zm566 115l0 -294 -105 0 0 -60 281 0 0 60 -104 0 0 294 -72 0zm269 0l0 -354 262 0 0 60 -190 0 0 78 177 0 0 60 -177 0 0 96 197 0 0 60 -269 0zm378 0l0 -354 71 0 0 157 145 -157 96 0 -134 138 141 216 -93 0 -97 -166 -58 59 0 107 -71 0zm403 0l0 -354 69 0 146 237 0 -237 66 0 0 354 -72 0 -143 -233 0 233 -66 0zm389 -175c0,-36 5,-66 16,-91 8,-18 19,-34 33,-48 14,-15 29,-25 46,-32 22,-10 47,-14 76,-14 52,0 94,16 125,48 32,33 47,78 47,135 0,58 -15,103 -46,135 -31,32 -73,48 -125,48 -53,0 -95,-16 -126,-48 -31,-32 -46,-76 -46,-133zm73 -2c0,40 10,70 28,91 19,21 42,31 71,31 28,0 52,-10 70,-31 18,-20 28,-51 28,-92 0,-41 -9,-71 -27,-91 -18,-20 -42,-30 -71,-30 -30,0 -54,10 -72,30 -18,20 -27,51 -27,92zm375 177l0 -351 71 0 0 291 178 0 0 60 -249 0zm332 -175c0,-36 5,-66 16,-91 8,-18 19,-34 33,-48 14,-15 29,-25 46,-32 22,-10 47,-14 76,-14 52,0 94,16 125,48 32,33 47,78 47,135 0,58 -15,103 -46,135 -31,32 -73,48 -125,48 -53,0 -95,-16 -126,-48 -31,-32 -46,-76 -46,-133zm73 -2c0,40 10,70 28,91 19,21 42,31 71,31 28,0 52,-10 70,-31 19,-20 28,-51 28,-92 0,-41 -9,-71 -27,-91 -18,-20 -42,-30 -71,-30 -30,0 -53,10 -72,30 -18,20 -27,51 -27,92zm538 47l0 -60 153 0 0 141c-15,15 -36,28 -65,39 -28,11 -57,16 -86,16 -37,0 -69,-7 -97,-23 -27,-15 -48,-38 -62,-67 -14,-29 -21,-60 -21,-94 0,-37 8,-70 24,-99 15,-28 38,-50 67,-66 23,-12 51,-17 85,-17 44,0 78,9 103,27 25,19 41,44 48,77l-71 13c-5,-17 -15,-31 -28,-41 -14,-10 -31,-15 -52,-15 -31,0 -56,10 -74,30 -19,19 -28,49 -28,88 0,42 9,74 28,95 19,21 43,31 73,31 15,0 30,-3 45,-9 15,-6 28,-13 39,-21l0 -45 -81 0zm264 130l0 -354 71 0 0 354 -71 0z"/>
    <path class="fil1" d="M5737 3079c-133,0 -251,-37 -353,-112 -102,-75 -173,-182 -214,-319l269 -106c22,80 58,145 109,193 51,48 115,72 191,72 64,0 118,-16 164,-47 45,-32 68,-77 68,-133 0,-57 -22,-103 -65,-139 -43,-37 -120,-75 -231,-116l-93 -34c-98,-34 -182,-86 -251,-156 -69,-71 -104,-159 -104,-265 0,-79 20,-152 62,-217 41,-65 99,-116 174,-154 75,-37 160,-56 255,-56 137,0 246,32 325,96 79,65 134,140 164,227l-253 106c-16,-47 -43,-86 -82,-118 -39,-32 -89,-48 -150,-48 -62,0 -114,15 -154,44 -40,29 -61,67 -61,114 0,45 20,83 58,115 38,32 101,63 189,93l96 32c131,45 232,105 302,179 71,75 106,172 106,292 0,100 -26,184 -77,252 -51,69 -116,120 -196,154 -80,34 -163,51 -248,51zm1086 0c-115,0 -209,-33 -283,-101 -73,-67 -110,-155 -110,-264 0,-72 19,-136 57,-191 38,-56 91,-98 157,-128 67,-30 141,-45 221,-45 112,0 208,17 287,49l0 -46c0,-60 -22,-108 -67,-145 -44,-37 -104,-55 -179,-55 -51,0 -100,12 -148,35 -47,23 -87,54 -118,92l-178 -140c52,-68 118,-120 197,-157 80,-37 166,-55 260,-55 165,0 291,38 378,114 86,77 130,189 130,336l0 667 -275 0 0 -110 -17 0c-32,42 -75,77 -128,104 -53,27 -115,40 -184,40zm66 -216c81,0 145,-26 192,-78 48,-52 71,-112 71,-182 -72,-34 -148,-51 -227,-51 -145,0 -217,54 -217,162 0,44 16,80 47,107 31,28 76,42 134,42zm795 -901l261 0 0 144 17 0c27,-51 69,-93 125,-126 57,-34 119,-50 187,-50 50,0 95,7 136,23l0 278c-38,-14 -70,-24 -96,-30 -26,-7 -54,-10 -84,-10 -82,0 -148,30 -196,89 -48,60 -72,135 -72,226l0 539 -278 0 0 -1083zm1672 1117c-146,0 -280,-34 -403,-103 -122,-68 -219,-163 -292,-284 -72,-122 -108,-257 -108,-407 0,-151 36,-286 108,-407 73,-122 170,-216 292,-285 123,-69 257,-103 403,-103 119,0 228,21 326,62 99,42 184,101 254,178l-197 193c-51,-54 -108,-94 -169,-121 -62,-27 -134,-40 -216,-40 -93,0 -179,21 -257,65 -78,43 -140,104 -186,185 -46,80 -69,171 -69,273 0,102 23,193 70,273 47,80 109,141 188,185 79,43 165,64 258,64 142,0 258,-41 349,-125 28,-26 53,-58 74,-98 22,-39 37,-83 47,-129l-478 0 0 -245 746 0c10,40 15,84 15,134 0,101 -16,194 -46,281 -30,86 -77,162 -139,227 -68,74 -150,130 -247,169 -96,39 -204,58 -323,58zm1290 0c-115,0 -209,-33 -282,-101 -74,-67 -111,-155 -111,-264 0,-72 19,-136 57,-191 39,-56 91,-98 158,-128 66,-30 140,-45 221,-45 112,0 207,17 287,49l0 -46c0,-60 -23,-108 -67,-145 -45,-37 -105,-55 -180,-55 -51,0 -100,12 -148,35 -47,23 -86,54 -118,92l-178 -140c52,-68 118,-120 198,-157 79,-37 165,-55 259,-55 166,0 292,38 378,114 87,77 130,189 130,336l0 667 -274 0 0 -110 -17 0c-33,42 -76,77 -129,104 -53,27 -114,40 -184,40zm66 -216c81,0 145,-26 192,-78 48,-52 72,-112 72,-182 -73,-34 -148,-51 -228,-51 -144,0 -217,54 -217,162 0,44 16,80 47,107 31,28 76,42 134,42zm1250 216c-98,0 -187,-24 -267,-73 -80,-49 -143,-117 -189,-204 -46,-87 -69,-187 -69,-299 0,-110 23,-209 69,-297 46,-88 109,-156 189,-205 80,-49 169,-73 267,-73 73,0 139,15 195,47 57,32 100,72 130,118l17 0 -17 -153 0 -416 276 0 0 1521 -259 0 0 -129 -17 0c-28,47 -71,85 -129,117 -57,31 -123,46 -196,46zm46 -257c53,0 102,-13 147,-40 45,-27 82,-65 108,-113 27,-48 41,-103 41,-166 0,-62 -14,-117 -41,-165 -26,-48 -63,-86 -108,-112 -45,-26 -94,-39 -147,-39 -51,0 -99,13 -144,39 -45,26 -82,64 -108,112 -27,48 -41,103 -41,165 0,63 14,118 41,166 26,48 63,86 108,113 45,27 93,40 144,40zm1220 257c-130,0 -229,-40 -297,-121 -68,-80 -102,-193 -102,-338l0 -658 278 0 0 624c0,74 18,132 53,174 36,41 83,62 141,62 79,0 142,-29 189,-87 46,-58 70,-132 70,-221l0 -552 278 0 0 1083 -261 0 0 -136 -17 0c-33,53 -78,94 -137,125 -59,30 -124,45 -195,45zm1365 -17c-54,0 -104,-8 -149,-24 -45,-16 -82,-39 -111,-67 -66,-64 -99,-154 -99,-272l0 -499 -190 0 0 -238 190 0 0 -306 278 0 0 306 266 0 0 238 -266 0 0 448c0,55 12,95 36,119 20,23 54,34 102,34 27,0 49,-4 67,-11 18,-7 41,-19 69,-36l0 272c-61,24 -125,36 -193,36z"/>
   </g>
  </g>
 </g>
</svg>
