<?xml version="1.0" encoding="UTF-8"?>
<!DOCTYPE svg PUBLIC "-//W3C//DTD SVG 1.1//EN" "http://www.w3.org/Graphics/SVG/1.1/DTD/svg11.dtd">
<!-- Creator: CorelDRAW X7 -->
<svg xmlns="http://www.w3.org/2000/svg" xml:space="preserve" width="194.733mm" height="59.2666mm" version="1.1" style="shape-rendering:geometricPrecision; text-rendering:geometricPrecision; image-rendering:optimizeQuality; fill-rule:evenodd; clip-rule:evenodd"
viewBox="0 0 19473 5927"
 xmlns:xlink="http://www.w3.org/1999/xlink">
 <defs>
  <style type="text/css">
   <![CDATA[
    .fil0 {fill:#FEFEFE}
    .fil1 {fill:#00A2E9}
    .fil6 {fill:#0E7886}
    .fil2 {fill:#15BDB1}
    .fil9 {fill:#20D0C2}
    .fil4 {fill:#656767}
    .fil5 {fill:#C8CACB}
    .fil7 {fill:#DFE1E1}
    .fil8 {fill:#FBB42A}
    .fil3 {fill:#FDFEFE}
   ]]>
  </style>
 </defs>
 <g id="Layer_x0020_1">
  <metadata id="CorelCorpID_0Corel-Layer"/>
  <rect class="fil0" width="19473" height="5335"/>
  <g id="_1298498248016">
   <path class="fil1" d="M450 1607c108,-6 192,-17 276,32l19 1c239,-84 375,-2 613,0l41 1 22 0 0 232c39,11 808,4 917,4 101,0 193,-6 216,89 10,45 4,1154 3,1215 1,42 6,131 -8,165 -14,35 -53,70 -97,70 -24,16 -684,7 -774,7 7,39 20,79 30,118 14,55 9,59 47,90l150 129c1,1 1,3 2,3 0,1 1,3 1,4l3 27 -866 -1 5 -33c19,-24 52,-49 78,-69 103,-78 101,-77 121,-155 10,-37 22,-76 28,-113 -90,0 -749,9 -774,-7 -45,0 -86,-38 -98,-74 -12,-33 -8,-121 -7,-161l-3 -651 -360 -1 0 -173 -7 17c-14,49 -24,149 -28,239l0 139c1,9 1,17 2,24 14,90 7,90 29,202 23,115 68,240 119,343 27,54 52,96 83,148l124 165c70,79 67,76 141,142 20,18 41,37 62,53 45,35 84,63 136,95 25,15 48,29 72,43 24,14 50,26 77,39 280,140 646,177 976,102 125,-28 231,-73 332,-123 77,-38 145,-83 213,-134 12,-9 20,-15 33,-24 95,-75 184,-167 256,-264 181,-242 284,-524 300,-814l0 -161c-8,-157 -42,-314 -103,-468 -29,-71 -112,-240 -162,-298 -15,13 -30,52 -104,58 -86,6 -176,-26 -197,-116 -11,-47 1,-110 -11,-146 -21,-10 -20,-12 -52,-11 -1,1 -2,3 -3,4 -27,40 -60,88 -104,114 -53,32 -113,16 -163,-10 -121,-65 -89,-135 -77,-221 7,-53 -17,-33 4,-85l19 -3c3,0 12,1 14,1 12,2 25,5 35,7l177 54c100,34 102,84 219,89 -20,-39 -157,-123 -198,-150 -69,-46 -149,-83 -231,-115 -89,-36 -168,-57 -269,-78 -62,-12 -123,-20 -184,-23l-158 0c-187,10 -371,57 -543,131 -129,55 -261,146 -366,240 -21,18 -33,20 -48,46z"/>
   <path class="fil2" d="M1421 2176c217,-21 361,84 434,218 42,76 61,179 43,278 -51,268 -348,426 -608,294 -137,-70 -242,-216 -222,-436l-589 0 -3 572 2006 0c-2,-142 5,-1087 -10,-1135 -46,-23 -650,-11 -786,-11 -63,0 -213,-8 -265,3l0 217z"/>
   <path class="fil3" d="M99 1640l-2 802 630 0 -1 -803c-84,-49 -168,-38 -276,-32 -23,-2 -212,26 -259,27 -39,1 -57,6 -92,6z"/>
   <path class="fil3" d="M503 3416c324,0 652,6 975,6 322,0 651,-6 974,-6 44,0 83,-35 97,-70 14,-34 9,-123 8,-165l-2159 0c-1,40 -5,128 7,161 12,36 53,74 98,74z"/>
   <path class="fil3" d="M745 1640l-1 802 613 0 1 -802c-238,-2 -374,-84 -613,0z"/>
   <path class="fil3" d="M1421 2176l1 70c14,-9 36,-28 53,-32l0 183 -54 -1 1 21 53 1 0 165 -214 0 4 -53 -19 0 -4 53 -159 0 5 -52 -20 -1c-20,220 85,366 222,436 260,132 557,-26 608,-294 18,-99 -1,-202 -43,-278 -73,-134 -217,-239 -434,-218z"/>
   <path class="fil4" d="M1421 1959c52,-11 202,-3 265,-3 136,0 740,-12 786,11 15,48 8,993 10,1135l-2006 0 3 -572 -84 0 3 651 2159 0c1,-61 7,-1170 -3,-1215 -23,-95 -115,-89 -216,-89 -109,0 -878,7 -917,-4l0 86z"/>
   <path class="fil5" d="M1050 3760l855 0 -150 -129c-38,-31 -33,-35 -47,-90 -10,-39 -23,-79 -30,-118 90,0 750,9 774,-7 -323,0 -652,6 -974,6 -323,0 -651,-6 -975,-6 25,16 684,7 774,7 -6,37 -18,76 -28,113 -20,78 -18,77 -121,155 -26,20 -59,45 -78,69z"/>
   <path class="fil6" d="M2690 1821l43 -80c6,-8 6,-10 13,-16l7 -4c2,-1 3,-1 4,-2 16,-11 20,-26 25,-50 -23,-5 -54,-24 -75,-35 -23,-11 -57,-24 -81,-33 -35,-13 -138,-52 -179,-45 -117,-5 -119,-55 -219,-89l-177 -54c-10,-2 -23,-5 -35,-7 -2,0 -11,-1 -14,-1l-19 3c-21,52 3,32 -4,85 -12,86 -44,156 77,221 50,26 110,42 163,10 44,-26 77,-74 104,-114 1,-1 2,-3 3,-4 32,-1 31,1 52,11 12,36 0,99 11,146 21,90 111,122 197,116 74,-6 89,-45 104,-58z"/>
   <polygon class="fil7" points="1399,1641 1358,1640 1357,2442 744,2442 745,1640 726,1639 727,2442 97,2442 99,1640 58,1640 57,2496 1399,2496 "/>
   <polygon class="fil8" points="35,2356 35,2529 395,2530 479,2530 1068,2530 1088,2531 1246,2530 1265,2530 1421,2530 1422,2417 1421,2396 1422,2246 1421,2176 1421,1959 1421,1873 1421,1641 1399,1641 1399,2496 57,2496 58,1640 34,1640 "/>
   <path class="fil8" d="M2648 2137l0 354 101 0c1,-50 -8,-292 4,-318 12,4 12,-9 12,21l0 225c0,32 -7,21 -13,48 44,-11 27,-96 27,-140 0,-56 1,-112 0,-167l-30 -7c0,-21 -1,-41 -7,-57l-52 -6c-35,0 -42,12 -42,47z"/>
   <polygon class="fil9" points="2656,2969 2741,2968 2742,2492 2656,2492 "/>
   <path class="fil7" d="M2699 1720c2,-22 9,-6 -10,-16l-162 -37c7,40 26,116 1,157l-23 -9c-12,-55 68,-132 -93,-165 -7,116 10,172 115,195 44,9 94,6 121,-22 16,-17 51,-79 51,-103z"/>
   <path class="fil7" d="M2288 1604l-100 -21c-43,8 -40,110 -93,92 -9,-21 -2,-18 11,-36 29,-35 41,-67 79,-83 -1,-1 -3,-3 -4,-4 -25,-22 -42,-23 -80,-40 -27,-12 -56,-28 -87,-33 -8,31 -25,108 -14,140 20,53 139,127 212,74 23,-16 63,-58 76,-89z"/>
   <path class="fil2" d="M1494 2419l0 164 213 0c-4,-85 -21,-111 -36,-178l-177 14z"/>
   <path class="fil2" d="M1299 2767l176 -15 0 -149 -214 0c3,55 9,126 38,164z"/>
   <path class="fil2" d="M1494 2754l181 13c13,-60 28,-88 32,-163l-21 -2 -192 1 0 151z"/>
   <path class="fil2" d="M1692 2402c5,48 29,58 35,180l159 1c-6,-86 -28,-162 -73,-219 -18,5 -101,30 -121,38z"/>
   <path class="fil2" d="M1146 2814c47,-20 78,-31 129,-42 -17,-64 -29,-95 -33,-169l-159 0c11,145 39,139 63,211z"/>
   <path class="fil2" d="M1694 2770c21,9 39,11 62,18 22,6 43,17 62,24 40,-42 62,-136 68,-207l-159 -2c-4,71 -14,107 -33,167z"/>
   <path class="fil3" d="M1905 3760l-855 0 -5 33 866 1 -3 -27c0,-1 -1,-3 -1,-4 -1,0 -1,-2 -2,-3z"/>
   <path class="fil2" d="M1509 2993c96,-5 178,-43 244,-102 15,-13 45,-45 54,-64 -43,-16 -72,-27 -122,-37 -27,44 -40,74 -72,111l-93 81c-9,8 -3,1 -11,11z"/>
   <path class="fil2" d="M1162 2829c44,69 166,166 298,163 -22,-30 -90,-55 -142,-141 -9,-15 -26,-48 -37,-60 -42,8 -85,21 -119,38z"/>
   <path class="fil2" d="M1307 2784c3,32 48,87 64,106 23,27 68,68 104,82l0 -199 -168 11z"/>
   <path class="fil5" d="M2014 1479c31,5 60,21 87,33 38,17 55,18 80,40 1,1 3,3 4,4 -38,16 -50,48 -79,83 -13,18 -20,15 -11,36 53,18 50,-84 93,-92l100 21c13,-24 7,-34 6,-65 -67,-30 -129,-71 -211,-83 -42,-6 -46,3 -69,23z"/>
   <path class="fil2" d="M1494 2973c41,-21 72,-51 100,-80 18,-19 63,-77 67,-107l-167 -14 0 201z"/>
   <path class="fil5" d="M2412 1650c161,33 81,110 93,165l23 9c25,-41 6,-117 -1,-157l162 37c19,10 12,-6 10,16 47,-43 -88,-90 -127,-101 -33,-10 -66,-19 -100,-22 -40,-4 -50,17 -60,53z"/>
   <path class="fil2" d="M1681 2383c19,-5 38,-9 58,-14l59 -25c-61,-74 -180,-160 -289,-149 11,12 33,24 48,35 19,15 30,27 48,45 29,29 50,69 76,108z"/>
   <path class="fil2" d="M1494 2399l160 -10c1,-27 -48,-84 -63,-100 -20,-22 -64,-63 -96,-76l-1 186z"/>
   <polygon class="fil2" points="1265,2530 1261,2583 1475,2583 1475,2418 1422,2417 1421,2530 "/>
   <polygon class="fil9" points="152,1730 487,1731 488,1688 151,1685 "/>
   <path class="fil2" d="M1422 2246l-1 150 54 1 0 -183c-17,4 -39,23 -53,32z"/>
   <polygon class="fil2" points="1246,2530 1088,2531 1083,2583 1242,2583 "/>
   <path class="fil8" d="M2741 2968l-85 1c6,21 12,42 16,63 10,41 1,43 44,43l25 -107z"/>
  </g>
  <path class="fil1" d="M4159 3790c-188,0 -354,-53 -498,-159 -144,-106 -245,-256 -303,-450l381 -150c30,114 81,205 153,273 72,68 162,102 270,102 90,0 167,-23 231,-68 64,-45 96,-107 96,-187 0,-80 -31,-146 -92,-197 -61,-51 -169,-105 -325,-163l-132 -48c-138,-48 -256,-122 -354,-221 -98,-99 -147,-223 -147,-373 0,-112 29,-214 87,-306 58,-92 140,-165 246,-218 106,-53 226,-79 360,-79 194,0 347,45 459,136 112,91 189,198 231,320l-357 150c-22,-66 -61,-122 -116,-167 -55,-45 -125,-67 -211,-67 -88,0 -161,20 -218,61 -57,41 -85,95 -85,161 0,64 27,118 81,163 54,45 143,89 267,131l135 45c186,64 328,148 427,253 99,105 149,243 149,413 0,140 -36,258 -108,355 -72,97 -165,170 -278,218 -113,48 -229,72 -349,72zm1533 0c-162,0 -295,-48 -399,-143 -104,-95 -156,-219 -156,-373 0,-102 27,-192 81,-270 54,-78 128,-138 222,-180 94,-42 198,-63 312,-63 158,0 293,23 405,69l0 -66c0,-84 -32,-152 -95,-204 -63,-52 -147,-78 -253,-78 -72,0 -142,16 -209,49 -67,33 -122,77 -166,131l-252 -198c74,-96 167,-170 279,-222 112,-52 234,-78 366,-78 234,0 412,54 534,162 122,108 183,266 183,474l0 942 -387 0 0 -156 -24 0c-46,60 -107,109 -182,147 -75,38 -161,57 -259,57zm93 -306c114,0 204,-37 271,-110 67,-73 101,-158 101,-256 -102,-48 -209,-72 -321,-72 -204,0 -306,76 -306,228 0,62 22,112 66,151 44,39 107,59 189,59zm1122 -1272l369 0 0 204 24 0c38,-72 97,-132 177,-179 80,-47 168,-70 264,-70 70,0 134,11 192,33l0 393c-54,-20 -100,-35 -137,-44 -37,-9 -76,-13 -118,-13 -116,0 -208,42 -276,126 -68,84 -102,190 -102,318l0 762 -393 0 0 -1530zm2361 1578c-206,0 -396,-49 -569,-146 -173,-97 -310,-231 -412,-402 -102,-171 -153,-362 -153,-574 0,-212 51,-404 153,-575 102,-171 239,-305 412,-402 173,-97 363,-145 569,-145 168,0 321,29 460,88 139,59 259,143 359,251l-279 273c-72,-76 -152,-133 -239,-171 -87,-38 -188,-57 -304,-57 -132,0 -253,30 -363,91 -110,61 -198,148 -263,261 -65,113 -97,242 -97,386 0,144 33,272 99,385 66,113 154,200 265,261 111,61 233,92 365,92 200,0 364,-59 492,-177 40,-36 75,-82 105,-138 30,-56 52,-117 66,-183l-675 0 0 -345 1053 0c14,56 21,119 21,189 0,142 -22,274 -65,396 -43,122 -108,229 -196,321 -96,104 -212,183 -348,238 -136,55 -288,83 -456,83zm1821 0c-162,0 -295,-48 -399,-143 -104,-95 -156,-219 -156,-373 0,-102 27,-192 81,-270 54,-78 128,-138 222,-180 94,-42 198,-63 312,-63 158,0 293,23 405,69l0 -66c0,-84 -32,-152 -95,-204 -63,-52 -147,-78 -253,-78 -72,0 -142,16 -209,49 -67,33 -122,77 -166,131l-252 -198c74,-96 167,-170 279,-222 112,-52 234,-78 366,-78 234,0 412,54 534,162 122,108 183,266 183,474l0 942 -387 0 0 -156 -24 0c-46,60 -107,109 -182,147 -75,38 -161,57 -259,57zm93 -306c114,0 204,-37 271,-110 67,-73 101,-158 101,-256 -102,-48 -209,-72 -321,-72 -204,0 -306,76 -306,228 0,62 22,112 66,151 44,39 107,59 189,59zm1764 306c-138,0 -263,-35 -376,-104 -113,-69 -203,-165 -267,-288 -66,-123 -98,-263 -98,-421 0,-156 32,-296 98,-420 64,-124 154,-221 267,-290 113,-69 238,-103 376,-103 104,0 196,22 276,67 80,45 141,101 183,167l24 0 -24 -216 0 -589 390 0 0 2149 -366 0 0 -183 -24 0c-40,66 -100,121 -181,165 -81,44 -174,66 -278,66zm66 -363c74,0 143,-19 207,-57 64,-38 115,-91 153,-159 38,-68 57,-146 57,-234 0,-88 -19,-166 -57,-234 -38,-68 -89,-121 -153,-158 -64,-37 -133,-55 -207,-55 -72,0 -140,18 -204,55 -64,37 -115,90 -153,158 -38,68 -57,146 -57,234 0,88 19,166 57,234 38,68 89,121 153,159 64,38 132,57 204,57zm1722 363c-184,0 -324,-57 -420,-171 -96,-114 -144,-273 -144,-477l0 -930 393 0 0 882c0,104 25,185 75,244 50,59 116,89 198,89 112,0 201,-41 267,-123 66,-82 99,-186 99,-312l0 -780 393 0 0 1530 -369 0 0 -192 -24 0c-46,74 -110,132 -193,175 -83,43 -175,65 -275,65zm1926 -24c-76,0 -146,-12 -210,-35 -64,-23 -116,-54 -156,-94 -94,-90 -141,-218 -141,-384l0 -705 -267 0 0 -336 267 0 0 -432 393 0 0 432 375 0 0 336 -375 0 0 633c0,78 17,134 51,168 28,32 76,48 144,48 38,0 70,-5 95,-15 25,-10 57,-27 97,-51l0 384c-86,34 -177,51 -273,51z"/>
 </g>
</svg>
