<?xml version="1.0" encoding="UTF-8"?>
<!DOCTYPE svg PUBLIC "-//W3C//DTD SVG 1.1//EN" "http://www.w3.org/Graphics/SVG/1.1/DTD/svg11.dtd">
<!-- Creator: CorelDRAW X7 -->
<svg xmlns="http://www.w3.org/2000/svg" xml:space="preserve" width="194.733mm" height="59.2666mm" version="1.1" style="shape-rendering:geometricPrecision; text-rendering:geometricPrecision; image-rendering:optimizeQuality; fill-rule:evenodd; clip-rule:evenodd"
viewBox="0 0 19473 5927"
 xmlns:xlink="http://www.w3.org/1999/xlink">
 <defs>
  <style type="text/css">
   <![CDATA[
    .fil0 {fill:#FEFEFE}
    .fil1 {fill:#00A2E9}
    .fil6 {fill:#0E7886}
    .fil2 {fill:#15BDB1}
    .fil9 {fill:#20D0C2}
    .fil4 {fill:#656767}
    .fil5 {fill:#C8CACB}
    .fil7 {fill:#DFE1E1}
    .fil8 {fill:#FBB42A}
    .fil3 {fill:#FDFEFE}
   ]]>
  </style>
 </defs>
 <g id="Layer_x0020_1">
  <metadata id="CorelCorpID_0Corel-Layer"/>
  <rect class="fil0" width="19473" height="5335"/>
  <g id="_1332996799440">
   <path class="fil1" d="M734 939c175,-10 313,-28 450,52l31 1c389,-136 611,-3 1000,0l65 2 37 -1 0 379c63,17 1316,7 1494,7 164,0 316,-11 352,145 17,73 8,1881 6,1980 1,68 9,214 -13,270 -23,56 -86,114 -159,114 -39,26 -1114,12 -1261,12 11,62 32,128 48,191 23,91 15,97 78,147l244 210c1,2 2,5 2,6 1,1 2,4 3,6l4 43 -1411 0 9 -55c30,-39 84,-79 126,-111 167,-129 165,-127 197,-254 16,-60 35,-123 46,-183 -147,0 -1222,14 -1261,-12 -75,0 -141,-62 -161,-120 -19,-54 -12,-199 -10,-264l-6 -1061 -586 -1 0 -282 -12 27c-23,80 -40,242 -46,390l0 227c1,15 2,28 4,39 22,146 11,146 47,329 37,188 110,392 194,559 44,89 84,156 135,241l201 269c115,129 111,125 230,231 34,30 67,61 102,87 74,57 138,103 222,155 41,25 77,48 117,71 39,22 82,41 125,63 456,228 1054,289 1591,167 204,-47 378,-120 542,-202 125,-62 237,-135 347,-218 19,-14 33,-24 54,-40 154,-121 300,-271 418,-429 295,-395 463,-854 489,-1327l0 -263c-14,-256 -70,-512 -169,-762 -47,-117 -182,-392 -264,-486 -24,21 -48,85 -169,94 -141,10 -287,-42 -322,-189 -18,-76 2,-179 -17,-238 -35,-16 -32,-20 -85,-18 -2,2 -3,5 -5,7 -44,65 -98,143 -169,185 -87,52 -185,27 -266,-16 -198,-107 -146,-221 -126,-360 12,-86 -28,-54 7,-139l30 -5c5,0 20,2 24,2 19,3 40,8 57,11l288 89c163,55 166,136 358,145 -34,-65 -257,-201 -324,-245 -112,-75 -243,-135 -376,-188 -145,-58 -275,-93 -439,-126 -100,-20 -200,-33 -300,-38l-257 0c-304,17 -605,93 -885,213 -210,90 -426,238 -598,391 -33,30 -53,34 -77,76z"/>
   <path class="fil2" d="M2317 1867c353,-36 587,136 708,354 68,124 99,293 69,454 -83,436 -567,695 -992,478 -222,-113 -394,-351 -361,-710l-961 0 -3 933 3269 0c-3,-232 8,-1772 -16,-1851 -75,-37 -1059,-18 -1282,-18 -102,0 -346,-12 -431,5l0 355z"/>
   <path class="fil3" d="M161 993l-3 1307 1028 0 -2 -1309c-137,-80 -275,-62 -450,-52 -38,-4 -346,43 -423,44 -64,2 -93,10 -150,10z"/>
   <path class="fil3" d="M821 3888c527,-1 1063,10 1588,10 526,0 1061,-11 1588,-10 73,0 136,-58 159,-114 22,-56 14,-202 13,-270l-3519 0c-2,65 -9,210 10,264 20,58 86,120 161,120z"/>
   <path class="fil3" d="M1215 992l-2 1308 998 0 4 -1308c-389,-3 -611,-136 -1000,0z"/>
   <path class="fil3" d="M2317 1867l0 114c24,-15 60,-46 87,-53l0 299 -87 -2 1 34 86 1 1 270 -349 0 6 -86 -31 0 -6 86 -259 0 7 -86 -32 -1c-33,359 139,597 361,710 425,217 909,-42 992,-478 30,-161 -1,-330 -69,-454 -121,-218 -355,-390 -708,-354z"/>
   <path class="fil4" d="M2317 1512c85,-17 329,-5 431,-5 223,0 1207,-19 1282,18 24,79 13,1619 16,1851l-3269 0 3 -933 -136 0 6 1061 3519 0c2,-99 11,-1907 -6,-1980 -36,-156 -188,-145 -352,-145 -178,0 -1431,10 -1494,-7l0 140z"/>
   <path class="fil5" d="M1713 4448l1393 0 -244 -210c-63,-50 -55,-56 -78,-147 -16,-63 -37,-129 -48,-191 147,0 1222,14 1261,-12 -527,-1 -1062,10 -1588,10 -525,0 -1061,-11 -1588,-10 39,26 1114,12 1261,12 -11,60 -30,123 -46,183 -32,127 -30,125 -197,254 -42,32 -96,72 -126,111z"/>
   <path class="fil6" d="M4385 1288l71 -131c8,-13 10,-16 21,-25l12 -8c2,-1 4,-2 6,-3 26,-19 32,-42 41,-81 -38,-9 -88,-40 -122,-57 -39,-19 -94,-40 -134,-55 -57,-21 -224,-84 -290,-72 -192,-9 -195,-90 -358,-145l-288 -89c-17,-3 -38,-8 -57,-11 -4,0 -19,-2 -24,-2l-30 5c-35,85 5,53 -7,139 -20,139 -72,253 126,360 81,43 179,68 266,16 71,-42 125,-120 169,-185 2,-2 3,-5 5,-7 53,-2 50,2 85,18 19,59 -1,162 17,238 35,147 181,199 322,189 121,-9 145,-73 169,-94z"/>
   <polygon class="fil7" points="2280,994 2215,992 2211,2300 1213,2300 1215,992 1184,991 1186,2300 158,2300 161,993 95,993 94,2387 2281,2387 "/>
   <polygon class="fil8" points="58,2160 58,2442 644,2443 780,2443 1741,2443 1773,2444 2031,2444 2062,2444 2317,2443 2318,2259 2317,2225 2317,1981 2317,1867 2317,1512 2317,1372 2317,993 2280,994 2281,2387 94,2387 95,993 55,993 "/>
   <path class="fil8" d="M4318 1802l0 578 164 0c0,-82 -13,-477 7,-519 19,7 19,-14 19,35l0 367c0,51 -11,34 -21,78 71,-18 44,-158 44,-229 0,-90 1,-182 0,-272l-49 -10c0,-36 -2,-68 -12,-94l-85 -10c-57,0 -67,19 -67,76z"/>
   <polygon class="fil9" points="4331,3159 4469,3158 4470,2381 4330,2381 "/>
   <path class="fil7" d="M4401 1123c3,-36 14,-9 -18,-27l-264 -60c12,66 42,190 2,256l-38 -15c-19,-89 112,-214 -151,-268 -12,189 16,280 187,317 72,15 154,10 197,-35 27,-29 85,-128 85,-168z"/>
   <path class="fil7" d="M3729 934l-162 -34c-71,12 -66,180 -151,149 -16,-33 -5,-29 18,-58 46,-57 66,-110 129,-135 -2,-3 -5,-5 -7,-7 -42,-36 -69,-38 -130,-66 -44,-20 -93,-44 -143,-54 -12,51 -41,178 -22,230 32,86 226,206 345,120 37,-27 103,-95 123,-145z"/>
   <path class="fil2" d="M2436 2263l0 267 347 0c-6,-139 -35,-181 -59,-291l-288 24z"/>
   <path class="fil2" d="M2117 2830l287 -24 0 -244 -348 0c5,90 15,205 61,268z"/>
   <path class="fil2" d="M2436 2809l295 20c21,-98 46,-144 52,-265l-35 -3 -312 1 0 247z"/>
   <path class="fil2" d="M2758 2235c9,78 47,94 57,294l259 1c-10,-140 -46,-265 -119,-357 -29,8 -165,48 -197,62z"/>
   <path class="fil2" d="M1869 2906c75,-32 126,-50 210,-68 -28,-104 -48,-155 -54,-276l-259 0c17,237 64,227 103,344z"/>
   <path class="fil2" d="M2761 2834c35,16 64,18 102,29 36,11 70,29 101,40 65,-69 101,-221 110,-338l-259 -3c-6,115 -22,175 -54,272z"/>
   <path class="fil3" d="M3106 4448l-1393 0 -9 55 1411 0 -4 -43c-1,-2 -2,-5 -3,-6 0,-1 -1,-4 -2,-6z"/>
   <path class="fil2" d="M2461 3198c155,-9 289,-70 397,-166 24,-22 74,-73 87,-104 -69,-26 -116,-44 -197,-60 -46,71 -66,119 -119,180l-151 132c-15,13 -5,2 -17,18z"/>
   <path class="fil2" d="M1894 2931c72,112 270,271 485,265 -35,-48 -146,-89 -230,-230 -14,-23 -43,-78 -60,-97 -69,13 -140,34 -195,62z"/>
   <path class="fil2" d="M2131 2858c5,51 78,142 104,172 38,44 111,110 169,133l0 -323 -273 18z"/>
   <path class="fil5" d="M3283 729c50,10 99,34 143,54 61,28 88,30 130,66 2,2 5,4 7,7 -63,25 -83,78 -129,135 -23,29 -34,25 -18,58 85,31 80,-137 151,-149l162 34c23,-40 13,-56 11,-107 -109,-47 -210,-115 -345,-134 -68,-10 -74,4 -112,36z"/>
   <path class="fil2" d="M2436 3165c67,-34 117,-82 162,-130 30,-31 104,-126 110,-175l-272 -23 0 328z"/>
   <path class="fil5" d="M3932 1009c263,54 132,179 151,268l38 15c40,-66 10,-190 -2,-256l264 60c32,18 21,-9 18,27 75,-71 -144,-148 -208,-166 -54,-15 -108,-29 -164,-35 -64,-7 -81,29 -97,87z"/>
   <path class="fil2" d="M2740 2203c32,-7 63,-13 96,-22l95 -40c-100,-122 -293,-262 -471,-245 18,20 54,40 78,59 32,24 49,43 78,72 49,48 82,113 124,176z"/>
   <path class="fil2" d="M2436 2229l261 -16c1,-44 -79,-136 -103,-163 -33,-36 -105,-103 -157,-124l-1 303z"/>
   <polygon class="fil2" points="2062,2444 2056,2530 2405,2530 2404,2260 2318,2259 2317,2443 "/>
   <polygon class="fil9" points="248,1139 795,1141 796,1071 247,1066 "/>
   <path class="fil2" d="M2317 1981l0 244 87 2 0 -299c-27,7 -63,38 -87,53z"/>
   <polygon class="fil2" points="2031,2444 1773,2444 1766,2530 2025,2530 "/>
   <path class="fil8" d="M4469 3158l-138 1c9,34 18,69 25,102 16,68 2,71 72,71l41 -174z"/>
  </g>
  <path class="fil1" d="M6699 3790c-188,0 -354,-53 -498,-159 -144,-106 -245,-256 -303,-450l381 -150c30,114 81,205 153,273 72,68 162,102 270,102 90,0 167,-23 231,-68 64,-45 96,-107 96,-187 0,-80 -31,-146 -92,-197 -61,-51 -169,-105 -325,-163l-132 -48c-138,-48 -256,-122 -354,-221 -98,-99 -147,-223 -147,-373 0,-112 29,-214 87,-306 58,-92 140,-165 246,-218 106,-53 226,-79 360,-79 194,0 347,45 459,136 112,91 189,198 231,320l-357 150c-22,-66 -61,-122 -116,-167 -55,-45 -125,-67 -211,-67 -88,0 -161,20 -218,61 -57,41 -85,95 -85,161 0,64 27,118 81,163 54,45 143,89 267,131l135 45c186,64 328,148 427,253 99,105 149,243 149,413 0,140 -36,258 -108,355 -72,97 -165,170 -278,218 -113,48 -229,72 -349,72zm1533 0c-162,0 -295,-48 -399,-143 -104,-95 -156,-219 -156,-373 0,-102 27,-192 81,-270 54,-78 128,-138 222,-180 94,-42 198,-63 312,-63 158,0 293,23 405,69l0 -66c0,-84 -32,-152 -95,-204 -63,-52 -147,-78 -253,-78 -72,0 -142,16 -209,49 -67,33 -122,77 -166,131l-252 -198c74,-96 167,-170 279,-222 112,-52 234,-78 366,-78 234,0 412,54 534,162 122,108 183,266 183,474l0 942 -387 0 0 -156 -24 0c-46,60 -107,109 -182,147 -75,38 -161,57 -259,57zm93 -306c114,0 204,-37 271,-110 67,-73 101,-158 101,-256 -102,-48 -209,-72 -321,-72 -204,0 -306,76 -306,228 0,62 22,112 66,151 44,39 107,59 189,59zm1122 -1272l369 0 0 204 24 0c38,-72 97,-132 177,-179 80,-47 168,-70 264,-70 70,0 134,11 192,33l0 393c-54,-20 -100,-35 -137,-44 -37,-9 -76,-13 -118,-13 -116,0 -208,42 -276,126 -68,84 -102,190 -102,318l0 762 -393 0 0 -1530zm2361 1578c-206,0 -396,-49 -569,-146 -173,-97 -310,-231 -412,-402 -102,-171 -153,-362 -153,-574 0,-212 51,-404 153,-575 102,-171 239,-305 412,-402 173,-97 363,-145 569,-145 168,0 321,29 460,88 139,59 259,143 359,251l-279 273c-72,-76 -152,-133 -239,-171 -87,-38 -188,-57 -304,-57 -132,0 -253,30 -363,91 -110,61 -198,148 -263,261 -65,113 -97,242 -97,386 0,144 33,272 99,385 66,113 154,200 265,261 111,61 233,92 365,92 200,0 364,-59 492,-177 40,-36 75,-82 105,-138 30,-56 52,-117 66,-183l-675 0 0 -345 1053 0c14,56 21,119 21,189 0,142 -22,274 -65,396 -43,122 -108,229 -196,321 -96,104 -212,183 -348,238 -136,55 -288,83 -456,83zm1821 0c-162,0 -295,-48 -399,-143 -104,-95 -156,-219 -156,-373 0,-102 27,-192 81,-270 54,-78 128,-138 222,-180 94,-42 198,-63 312,-63 158,0 293,23 405,69l0 -66c0,-84 -31,-152 -94,-204 -63,-52 -148,-78 -254,-78 -72,0 -141,16 -208,49 -67,33 -123,77 -167,131l-252 -198c74,-96 167,-170 279,-222 112,-52 234,-78 366,-78 234,0 412,54 534,162 122,108 183,266 183,474l0 942 -387 0 0 -156 -24 0c-46,60 -106,109 -181,147 -75,38 -162,57 -260,57zm93 -306c114,0 205,-37 272,-110 67,-73 100,-158 100,-256 -102,-48 -209,-72 -321,-72 -204,0 -306,76 -306,228 0,62 22,112 66,151 44,39 107,59 189,59zm1764 306c-138,0 -263,-35 -376,-104 -113,-69 -202,-165 -267,-288 -65,-123 -98,-263 -98,-421 0,-156 33,-296 98,-420 65,-124 154,-221 267,-290 113,-69 238,-103 376,-103 104,0 196,22 276,67 80,45 141,101 183,167l24 0 -24 -216 0 -589 390 0 0 2149 -366 0 0 -183 -24 0c-40,66 -100,121 -181,165 -81,44 -174,66 -278,66zm66 -363c74,0 143,-19 207,-57 64,-38 115,-91 153,-159 38,-68 57,-146 57,-234 0,-88 -19,-166 -57,-234 -38,-68 -89,-121 -153,-158 -64,-37 -133,-55 -207,-55 -72,0 -140,18 -204,55 -64,37 -115,90 -153,158 -38,68 -57,146 -57,234 0,88 19,166 57,234 38,68 89,121 153,159 64,38 132,57 204,57zm1722 363c-184,0 -324,-57 -420,-171 -96,-114 -144,-273 -144,-477l0 -930 393 0 0 882c0,104 25,185 75,244 50,59 116,89 198,89 112,0 201,-41 267,-123 66,-82 99,-186 99,-312l0 -780 393 0 0 1530 -369 0 0 -192 -24 0c-46,74 -110,132 -193,175 -83,43 -175,65 -275,65zm1926 -24c-76,0 -146,-12 -210,-35 -64,-23 -116,-54 -156,-94 -94,-90 -141,-218 -141,-384l0 -705 -267 0 0 -336 267 0 0 -432 393 0 0 432 375 0 0 336 -375 0 0 633c0,78 17,134 51,168 28,32 76,48 144,48 38,0 70,-5 95,-15 25,-10 57,-27 97,-51l0 384c-86,34 -177,51 -273,51z"/>
 </g>
</svg>
