<?xml version="1.0" encoding="UTF-8"?>
<!DOCTYPE svg PUBLIC "-//W3C//DTD SVG 1.1//EN" "http://www.w3.org/Graphics/SVG/1.1/DTD/svg11.dtd">
<!-- Creator: CorelDRAW X7 -->
<svg xmlns="http://www.w3.org/2000/svg" xml:space="preserve" width="194.733mm" height="59.2666mm" version="1.1" style="shape-rendering:geometricPrecision; text-rendering:geometricPrecision; image-rendering:optimizeQuality; fill-rule:evenodd; clip-rule:evenodd"
viewBox="0 0 19473 5927"
 xmlns:xlink="http://www.w3.org/1999/xlink">
 <defs>
  <style type="text/css">
   <![CDATA[
    .fil0 {fill:#FEFEFE}
    .fil10 {fill:#332C2B}
    .fil1 {fill:#00A2E9}
    .fil6 {fill:#0E7886}
    .fil2 {fill:#15BDB1}
    .fil9 {fill:#20D0C2}
    .fil4 {fill:#656767}
    .fil5 {fill:#C8CACB}
    .fil7 {fill:#DFE1E1}
    .fil8 {fill:#FBB42A}
    .fil3 {fill:#FDFEFE}
   ]]>
  </style>
 </defs>
 <g id="Layer_x0020_1">
  <metadata id="CorelCorpID_0Corel-Layer"/>
  <rect class="fil0" width="19473" height="5927"/>
  <g id="_1332994693568">
   <path class="fil1" d="M450 1904c107,-6 191,-17 276,32l18 0c239,-83 375,-1 613,0l41 1 22 0 0 232c39,11 807,4 916,4 101,0 193,-6 216,90 10,44 4,1152 3,1213 1,42 6,131 -8,166 -14,34 -53,69 -97,70 -24,16 -683,7 -773,7 7,38 19,78 29,117 14,55 10,59 48,90l150 129c0,1 1,3 1,3 0,1 1,3 2,4l2 26 -865 0 6 -33c18,-25 51,-49 77,-69 103,-78 101,-77 121,-155 10,-37 22,-75 28,-112 -90,0 -749,9 -773,-7 -46,-1 -86,-38 -99,-74 -11,-33 -7,-122 -6,-162l-3 -650 -360 -1 0 -173 -7 17c-14,49 -24,148 -28,239l0 139c1,9 1,17 2,24 14,89 7,90 29,201 23,116 68,241 119,343 27,54 52,96 83,148l123 165c70,79 68,76 141,141 21,19 41,38 62,54 46,34 85,63 136,94 26,16 48,30 72,44 24,14 51,25 77,39 280,140 646,177 975,102 125,-29 232,-73 332,-124 77,-38 146,-83 213,-133 12,-9 20,-15 33,-25 95,-74 184,-166 256,-263 181,-242 284,-523 300,-813l0 -161c-9,-157 -43,-314 -104,-468 -28,-71 -111,-240 -161,-297 -15,13 -30,52 -104,57 -86,6 -176,-25 -197,-116 -11,-46 1,-109 -11,-145 -21,-10 -19,-12 -52,-11 -1,1 -2,3 -3,4 -27,40 -60,87 -103,113 -54,32 -114,17 -163,-10 -122,-65 -90,-135 -78,-220 8,-53 -17,-33 5,-85l18 -4c3,0 12,2 15,2 12,2 24,4 35,7l176 54c100,34 102,83 220,89 -21,-40 -158,-123 -199,-150 -69,-46 -149,-83 -231,-116 -88,-35 -168,-56 -269,-77 -61,-12 -122,-20 -184,-23l-157 0c-187,10 -371,57 -542,131 -129,55 -261,145 -367,239 -20,19 -33,21 -47,47z"/>
   <path class="fil2" d="M1420 2473c216,-22 360,83 434,217 42,76 61,179 42,278 -50,267 -347,426 -607,293 -137,-70 -242,-215 -222,-435l-589 0 -2 572 2004 0c-2,-143 5,-1086 -10,-1135 -46,-23 -649,-11 -786,-11 -62,0 -212,-8 -264,3l0 218z"/>
   <path class="fil3" d="M99 1937l-2 801 630 0 -1 -802c-85,-49 -169,-38 -276,-32 -24,-2 -212,26 -260,27 -38,1 -56,6 -91,6z"/>
   <path class="fil3" d="M503 3712c323,-1 651,5 974,5 322,0 650,-6 973,-5 44,-1 83,-36 97,-70 14,-35 9,-124 8,-166l-2157 0c-1,40 -5,129 6,162 13,36 53,73 99,74z"/>
   <path class="fil3" d="M744 1936l-1 802 612 0 2 -802c-238,-1 -374,-83 -613,0z"/>
   <path class="fil3" d="M1420 2473l0 69c15,-9 37,-28 54,-32l0 183 -54 -1 1 21 53 1 0 165 -214 0 4 -53 -19 0 -4 53 -159 0 5 -52 -20 -1c-20,220 85,365 222,435 260,133 557,-26 607,-293 19,-99 0,-202 -42,-278 -74,-134 -218,-239 -434,-217z"/>
   <path class="fil4" d="M1420 2255c52,-11 202,-3 264,-3 137,0 740,-12 786,11 15,49 8,992 10,1135l-2004 0 2 -572 -83 0 3 650 2157 0c1,-61 7,-1169 -3,-1213 -23,-96 -115,-90 -216,-90 -109,0 -877,7 -916,-4l0 86z"/>
   <path class="fil5" d="M1050 4055l854 0 -150 -129c-38,-31 -34,-35 -48,-90 -10,-39 -22,-79 -29,-117 90,0 749,9 773,-7 -323,-1 -651,5 -973,5 -323,0 -651,-6 -974,-5 24,16 683,7 773,7 -6,37 -18,75 -28,112 -20,78 -18,77 -121,155 -26,20 -59,44 -77,69z"/>
   <path class="fil6" d="M2688 2118l43 -80c5,-9 6,-11 13,-16l7 -4c1,-1 3,-2 4,-3 16,-11 20,-26 25,-49 -23,-6 -54,-25 -75,-35 -23,-12 -57,-25 -81,-34 -35,-13 -138,-51 -178,-44 -118,-6 -120,-55 -220,-89l-176 -54c-11,-3 -23,-5 -35,-7 -3,0 -12,-2 -15,-2l-18 4c-22,52 3,32 -5,85 -12,85 -44,155 78,220 49,27 109,42 163,10 43,-26 76,-73 103,-113 1,-1 2,-3 3,-4 33,-1 31,1 52,11 12,36 0,99 11,145 21,91 111,122 197,116 74,-5 89,-44 104,-57z"/>
   <polygon class="fil7" points="1398,1937 1357,1936 1355,2738 743,2738 744,1936 726,1936 727,2738 97,2738 99,1937 58,1937 57,2791 1398,2791 "/>
   <polygon class="fil8" points="35,2652 35,2825 395,2826 478,2826 1067,2826 1087,2827 1245,2826 1264,2826 1420,2826 1421,2713 1420,2692 1420,2542 1420,2473 1420,2255 1420,2169 1420,1937 1398,1937 1398,2791 57,2791 58,1937 34,1937 "/>
   <path class="fil8" d="M2646 2433l0 354 101 0c0,-50 -8,-292 4,-318 12,4 12,-9 12,21l0 225c0,32 -7,21 -13,48 44,-11 27,-96 27,-140 0,-56 1,-112 0,-167l-30 -6c0,-22 -1,-42 -7,-58l-52 -6c-35,0 -42,12 -42,47z"/>
   <polygon class="fil9" points="2654,3265 2739,3264 2740,2788 2654,2788 "/>
   <path class="fil7" d="M2697 2016c2,-21 9,-5 -11,-16l-161 -37c7,41 26,117 1,157l-23 -9c-12,-55 68,-131 -93,-164 -7,116 10,171 115,194 44,9 94,6 121,-22 16,-17 51,-78 51,-103z"/>
   <path class="fil7" d="M2286 1901l-100 -21c-43,7 -40,110 -93,92 -9,-21 -2,-19 12,-36 28,-35 40,-67 79,-83 -2,-2 -3,-3 -4,-4 -26,-22 -43,-24 -80,-41 -27,-12 -57,-27 -88,-33 -7,31 -25,109 -13,141 20,53 138,126 211,74 23,-17 63,-58 76,-89z"/>
   <path class="fil2" d="M1493 2715l0 164 213 0c-4,-85 -21,-111 -37,-178l-176 14z"/>
   <path class="fil2" d="M1298 3063l175 -15 1 -150 -214 0c3,56 9,126 38,165z"/>
   <path class="fil2" d="M1493 3050l181 12c13,-60 28,-88 32,-162l-22 -2 -191 0 0 152z"/>
   <path class="fil2" d="M1690 2698c6,48 29,58 35,180l159 1c-6,-86 -28,-162 -73,-219 -17,5 -101,30 -121,38z"/>
   <path class="fil2" d="M1146 3109c46,-19 77,-30 128,-41 -17,-64 -29,-95 -33,-170l-159 0c11,146 40,140 64,211z"/>
   <path class="fil2" d="M1692 3066c22,9 40,11 63,17 22,7 43,18 62,24 39,-42 61,-135 67,-206l-159 -3c-3,71 -13,108 -33,168z"/>
   <path class="fil3" d="M1904 4055l-854 0 -6 33 865 0 -2 -26c-1,-1 -2,-3 -2,-4 0,0 -1,-2 -1,-3z"/>
   <path class="fil2" d="M1508 3288c95,-5 178,-43 244,-101 14,-14 45,-45 53,-64 -42,-16 -71,-27 -121,-37 -28,44 -40,73 -72,111l-93 80c-10,9 -3,2 -11,11z"/>
   <path class="fil2" d="M1161 3125c44,68 166,166 297,162 -22,-29 -89,-55 -141,-141 -9,-14 -26,-48 -37,-59 -42,8 -85,21 -119,38z"/>
   <path class="fil2" d="M1306 3080c3,31 48,87 64,105 23,27 68,68 104,82l0 -198 -168 11z"/>
   <path class="fil5" d="M2012 1775c31,6 61,21 88,33 37,17 54,19 80,41 1,1 2,2 4,4 -39,16 -51,48 -79,83 -14,17 -21,15 -12,36 53,18 50,-85 93,-92l100 21c14,-25 8,-35 6,-66 -66,-29 -128,-70 -211,-82 -42,-6 -46,2 -69,22z"/>
   <path class="fil2" d="M1493 3268c41,-20 72,-50 99,-79 19,-19 64,-78 68,-108l-167 -14 0 201z"/>
   <path class="fil5" d="M2410 1947c161,33 81,109 93,164l23 9c25,-40 6,-116 -1,-157l161 37c20,11 13,-5 11,16 47,-43 -88,-90 -127,-101 -33,-9 -66,-18 -100,-22 -40,-4 -50,18 -60,54z"/>
   <path class="fil2" d="M1680 2679c19,-5 38,-9 58,-14l58 -25c-61,-74 -179,-160 -288,-149 11,12 33,24 48,35 19,15 30,27 48,45 29,29 50,69 76,108z"/>
   <path class="fil2" d="M1493 2695l160 -10c1,-27 -48,-83 -63,-100 -20,-22 -64,-63 -96,-76l-1 186z"/>
   <polygon class="fil2" points="1264,2826 1260,2879 1474,2879 1474,2714 1421,2713 1420,2826 "/>
   <polygon class="fil9" points="152,2027 487,2028 488,1985 151,1982 "/>
   <path class="fil2" d="M1420 2542l0 150 54 1 0 -183c-17,4 -39,23 -54,32z"/>
   <polygon class="fil2" points="1245,2826 1087,2827 1082,2879 1241,2879 "/>
   <path class="fil8" d="M2739 3264l-85 1c6,20 11,42 16,62 10,42 1,44 44,44l25 -107z"/>
  </g>
  <g id="_1332994691072">
   <path class="fil10" d="M4425 3906l0 -235 47 0 0 235 -47 0zm123 0l0 -235 46 0 96 157 0 -157 44 0 0 235 -47 0 -95 -154 0 154 -44 0zm267 0l0 -235 161 0 0 40 -113 0 0 56 98 0 0 39 -98 0 0 100 -48 0zm221 -116c0,-24 4,-44 11,-60 5,-12 12,-23 22,-32 9,-10 19,-17 30,-22 14,-6 31,-9 50,-9 35,0 63,11 83,32 21,22 31,52 31,90 0,38 -10,67 -31,89 -20,21 -48,32 -82,32 -35,0 -63,-11 -83,-32 -21,-21 -31,-51 -31,-88zm49 -2c0,27 6,47 18,61 12,13 28,20 47,20 19,0 34,-7 46,-20 13,-14 19,-34 19,-61 0,-27 -6,-47 -18,-60 -12,-14 -28,-20 -47,-20 -20,0 -35,6 -47,20 -12,13 -18,33 -18,60zm513 89l-27 35c-13,-7 -26,-16 -38,-27 -10,8 -20,15 -31,19 -10,4 -23,6 -38,6 -29,0 -51,-8 -65,-25 -12,-12 -17,-27 -17,-44 0,-15 4,-28 13,-40 9,-12 22,-23 40,-31 -8,-10 -14,-19 -18,-28 -4,-8 -6,-16 -6,-24 0,-14 6,-26 17,-36 11,-10 28,-15 48,-15 21,0 36,5 48,16 11,10 17,23 17,37 0,10 -3,19 -8,27 -6,9 -17,19 -34,29l32 44c4,-7 7,-16 10,-27l40 9c-4,15 -7,25 -10,32 -3,7 -6,12 -10,17 5,4 12,9 20,15 8,6 13,9 17,11zm-122 -127l12 -10c9,-7 13,-14 13,-20 0,-6 -2,-11 -6,-15 -4,-4 -10,-6 -17,-6 -8,0 -13,2 -17,5 -4,4 -6,8 -6,13 0,5 3,12 10,20l11 13zm-18 48c-10,6 -17,12 -23,19 -5,8 -7,15 -7,23 0,10 3,18 9,24 7,6 15,9 26,9 7,0 13,-2 20,-4 6,-3 13,-8 21,-14l-46 -57zm313 108l0 -195 -69 0 0 -40 185 0 0 40 -69 0 0 195 -47 0zm176 0l0 -235 48 0 0 235 -48 0zm124 0l0 -235 75 0c29,0 48,2 57,4 13,3 24,11 33,23 9,12 14,27 14,45 0,15 -3,27 -8,37 -5,9 -12,17 -20,23 -8,5 -16,9 -24,11 -11,2 -28,3 -49,3l-31 0 0 89 -47 0zm47 -195l0 67 26 0c18,0 31,-2 37,-4 6,-3 11,-6 15,-12 3,-5 5,-11 5,-18 0,-8 -2,-15 -7,-21 -5,-6 -12,-9 -19,-10 -6,-2 -17,-2 -34,-2l-23 0zm189 119l46 -5c3,16 9,27 17,34 9,7 20,11 34,11 16,0 27,-3 35,-10 7,-6 11,-14 11,-22 0,-6 -1,-11 -5,-14 -3,-4 -9,-8 -17,-11 -5,-2 -18,-5 -37,-10 -25,-6 -43,-14 -53,-23 -15,-13 -22,-29 -22,-47 0,-12 4,-24 10,-34 7,-10 17,-18 29,-24 13,-5 28,-8 46,-8 30,0 52,7 66,20 15,13 23,30 24,52l-48 1c-2,-12 -6,-20 -13,-26 -6,-5 -16,-8 -29,-8 -14,0 -25,3 -32,9 -5,4 -8,8 -8,14 0,6 3,11 7,15 6,5 21,10 44,15 23,6 40,12 50,17 12,6 20,14 26,24 7,10 10,23 10,37 0,14 -4,26 -12,38 -7,12 -18,21 -31,26 -14,6 -31,9 -51,9 -30,0 -52,-7 -68,-21 -16,-13 -26,-33 -29,-59zm374 76l0 -195 -69 0 0 -40 186 0 0 40 -69 0 0 195 -48 0zm178 0l0 -235 174 0 0 40 -126 0 0 52 117 0 0 40 -117 0 0 63 130 0 0 40 -178 0zm250 0l0 -235 48 0 0 104 95 -104 64 0 -89 92 93 143 -61 0 -64 -110 -38 39 0 71 -48 0zm267 0l0 -235 46 0 96 157 0 -157 44 0 0 235 -48 0 -95 -154 0 154 -43 0zm257 -116c0,-24 4,-44 11,-60 5,-12 12,-23 21,-32 10,-10 20,-17 31,-22 14,-6 31,-9 50,-9 35,0 62,11 83,32 21,22 31,52 31,90 0,38 -10,67 -31,89 -20,21 -48,32 -82,32 -35,0 -63,-11 -83,-32 -21,-21 -31,-51 -31,-88zm49 -2c0,27 6,47 18,61 12,13 28,20 47,20 19,0 34,-7 46,-20 12,-14 18,-34 18,-61 0,-27 -5,-47 -17,-60 -12,-14 -28,-20 -47,-20 -20,0 -35,6 -47,20 -12,13 -18,33 -18,60zm247 118l0 -233 48 0 0 193 117 0 0 40 -165 0zm220 -116c0,-24 4,-44 11,-60 5,-12 12,-23 21,-32 10,-10 20,-17 31,-22 14,-6 31,-9 50,-9 35,0 62,11 83,32 21,22 31,52 31,90 0,38 -10,67 -31,89 -20,21 -48,32 -82,32 -35,0 -63,-11 -83,-32 -21,-21 -31,-51 -31,-88zm49 -2c0,27 6,47 18,61 12,13 28,20 47,20 19,0 34,-7 46,-20 12,-14 18,-34 18,-61 0,-27 -5,-47 -17,-60 -12,-14 -28,-20 -47,-20 -20,0 -35,6 -47,20 -12,13 -18,33 -18,60zm355 32l0 -40 102 0 0 93c-10,10 -25,18 -43,26 -19,7 -38,11 -57,11 -25,0 -46,-5 -64,-16 -19,-10 -32,-25 -41,-44 -10,-19 -14,-40 -14,-62 0,-25 5,-46 15,-66 10,-18 25,-33 45,-43 15,-8 34,-12 56,-12 29,0 52,6 68,18 17,13 27,30 32,51l-47 9c-4,-12 -10,-21 -19,-27 -9,-7 -20,-10 -34,-10 -21,0 -37,6 -49,19 -12,13 -18,33 -18,59 0,28 6,48 18,62 12,14 29,21 49,21 9,0 19,-2 29,-6 10,-3 19,-8 26,-14l0 -29 -54 0zm175 86l0 -235 47 0 0 235 -47 0z"/>
   <path class="fil1" d="M3795 3236c-88,0 -166,-25 -234,-75 -67,-49 -114,-120 -142,-211l179 -70c14,54 38,96 72,128 33,32 76,48 126,48 42,0 78,-11 108,-32 30,-21 45,-50 45,-88 0,-37 -14,-68 -42,-92 -29,-24 -80,-49 -153,-76l-62 -23c-65,-22 -120,-57 -166,-103 -46,-47 -69,-105 -69,-175 0,-53 14,-100 41,-144 27,-43 66,-77 115,-102 50,-24 106,-37 169,-37 91,0 163,22 215,64 53,43 89,93 108,150l-167 70c-10,-31 -28,-57 -54,-78 -26,-21 -59,-31 -99,-31 -41,0 -75,9 -102,28 -27,20 -40,45 -40,76 0,30 13,55 38,76 25,21 67,42 125,61l63 21c87,30 154,70 201,119 46,49 69,114 69,194 0,65 -17,121 -50,166 -34,46 -78,80 -130,102 -53,22 -108,34 -164,34zm718 0c-76,0 -138,-23 -187,-67 -49,-45 -73,-103 -73,-175 0,-48 13,-90 38,-127 25,-36 60,-64 104,-84 44,-20 93,-29 146,-29 74,0 137,10 190,32l0 -31c0,-39 -15,-71 -44,-96 -30,-24 -69,-36 -119,-36 -34,0 -66,8 -98,23 -31,15 -57,36 -78,61l-118 -93c35,-45 78,-79 131,-104 52,-24 109,-36 171,-36 110,0 193,25 251,76 57,50 85,124 85,222l0 441 -181 0 0 -73 -11 0c-22,28 -50,51 -85,69 -35,18 -76,27 -122,27zm44 -144c53,0 95,-17 127,-51 31,-34 47,-74 47,-120 -48,-23 -98,-34 -150,-34 -96,0 -144,36 -144,107 0,29 10,53 31,71 21,18 50,27 89,27zm525 -596l173 0 0 96 12 0c17,-34 45,-62 82,-84 38,-22 79,-33 124,-33 33,0 63,5 90,16l0 184c-25,-10 -46,-16 -64,-21 -17,-4 -36,-6 -55,-6 -55,0 -98,20 -130,59 -32,40 -47,89 -47,149l0 357 -185 0 0 -717zm1107 740c-97,0 -186,-23 -267,-68 -81,-46 -145,-109 -193,-189 -48,-80 -72,-170 -72,-269 0,-99 24,-189 72,-269 48,-80 112,-143 193,-189 81,-45 170,-68 267,-68 78,0 150,14 215,42 66,27 122,66 168,117l-130 128c-34,-36 -71,-62 -112,-80 -41,-18 -88,-27 -143,-27 -62,0 -118,14 -170,43 -51,29 -92,69 -123,122 -30,53 -45,114 -45,181 0,67 15,128 46,181 31,53 72,93 124,122 52,29 109,43 171,43 94,0 171,-28 231,-83 18,-17 35,-39 49,-65 14,-26 24,-55 31,-86l-317 0 0 -161 494 0c6,26 10,56 10,88 0,67 -10,129 -30,186 -21,57 -51,107 -93,150 -45,49 -99,86 -163,112 -63,26 -135,39 -213,39zm853 0c-76,0 -138,-23 -187,-67 -49,-45 -73,-103 -73,-175 0,-48 13,-90 38,-127 25,-36 60,-64 104,-84 44,-20 93,-29 146,-29 74,0 137,10 190,32l0 -31c0,-39 -15,-71 -44,-96 -30,-24 -70,-36 -119,-36 -34,0 -66,8 -98,23 -31,15 -57,36 -78,61l-118 -93c35,-45 78,-79 131,-104 52,-24 109,-36 171,-36 110,0 193,25 250,76 58,50 86,124 86,222l0 441 -181 0 0 -73 -11 0c-22,28 -50,51 -85,69 -36,18 -76,27 -122,27zm44 -144c53,0 95,-17 127,-51 31,-34 47,-74 47,-120 -48,-23 -98,-34 -151,-34 -95,0 -143,36 -143,107 0,29 10,53 31,71 21,18 50,27 89,27zm826 144c-65,0 -123,-16 -176,-49 -53,-32 -95,-77 -125,-135 -31,-57 -46,-123 -46,-197 0,-73 15,-139 46,-197 30,-58 72,-103 125,-136 53,-32 111,-48 176,-48 49,0 92,10 129,31 38,22 67,48 86,78l11 0 -11 -101 0 -275 183 0 0 1006 -172 0 0 -86 -11 0c-19,31 -47,57 -85,78 -38,20 -81,31 -130,31zm31 -170c35,0 67,-9 97,-27 30,-18 54,-43 72,-75 18,-31 26,-68 26,-109 0,-41 -8,-78 -26,-110 -18,-32 -42,-56 -72,-74 -30,-17 -62,-26 -97,-26 -34,0 -66,9 -96,26 -30,18 -53,42 -71,74 -18,32 -27,69 -27,110 0,41 9,78 27,109 18,32 41,57 71,75 30,18 62,27 96,27zm807 170c-86,0 -152,-27 -197,-80 -45,-54 -67,-128 -67,-224l0 -436 184 0 0 414c0,48 12,87 35,114 23,28 54,42 93,42 52,0 94,-20 125,-58 31,-38 46,-87 46,-146l0 -366 184 0 0 717 -173 0 0 -90 -11 0c-21,35 -52,62 -90,83 -39,20 -82,30 -129,30zm902 -12c-35,0 -68,-5 -98,-16 -30,-10 -54,-25 -73,-44 -44,-42 -66,-102 -66,-180l0 -330 -125 0 0 -158 125 0 0 -202 184 0 0 202 176 0 0 158 -176 0 0 296c0,37 8,63 24,79 13,15 36,23 67,23 18,0 33,-3 45,-7 11,-5 27,-13 45,-24l0 180c-40,16 -83,23 -128,23z"/>
  </g>
 </g>
</svg>
