<?xml version="1.0" encoding="UTF-8"?>
<!DOCTYPE svg PUBLIC "-//W3C//DTD SVG 1.1//EN" "http://www.w3.org/Graphics/SVG/1.1/DTD/svg11.dtd">
<!-- Creator: CorelDRAW X7 -->
<svg xmlns="http://www.w3.org/2000/svg" xml:space="preserve" width="194.733mm" height="59.2666mm" version="1.1" style="shape-rendering:geometricPrecision; text-rendering:geometricPrecision; image-rendering:optimizeQuality; fill-rule:evenodd; clip-rule:evenodd"
viewBox="0 0 19473 5927"
 xmlns:xlink="http://www.w3.org/1999/xlink">
 <defs>
  <style type="text/css">
   <![CDATA[
    .fil0 {fill:#FEFEFE}
    .fil1 {fill:#00A2E9}
   ]]>
  </style>
 </defs>
 <g id="Layer_x0020_1">
  <metadata id="CorelCorpID_0Corel-Layer"/>
  <rect class="fil0" y="298" width="19473" height="5331"/>
  <g id="_1332995389376">
   <path class="fil1" d="M897 3857c-210,0 -396,-59 -558,-178 -161,-119 -274,-287 -339,-504l427 -168c33,128 91,230 171,306 81,76 182,114 303,114 100,0 187,-25 258,-76 72,-50 108,-120 108,-210 0,-89 -34,-163 -103,-220 -68,-57 -189,-118 -364,-183l-148 -54c-155,-53 -287,-136 -397,-247 -109,-110 -164,-250 -164,-418 0,-125 32,-240 97,-343 65,-103 157,-184 276,-243 118,-60 253,-89 403,-89 217,0 389,51 514,153 126,102 212,221 259,357l-400 168c-25,-73 -68,-136 -129,-186 -62,-50 -141,-76 -237,-76 -99,0 -180,23 -244,69 -64,46 -96,106 -96,180 0,72 30,133 91,183 61,51 160,99 299,146l151 51c209,71 368,166 479,284 111,117 167,271 167,462 0,157 -41,289 -122,398 -80,109 -184,190 -310,243 -127,54 -257,81 -392,81zm1717 0c-181,0 -330,-53 -447,-159 -116,-107 -174,-246 -174,-419 0,-114 30,-215 90,-302 61,-88 144,-155 249,-202 105,-47 222,-70 349,-70 177,0 329,25 454,77l0 -74c0,-94 -35,-170 -106,-229 -70,-58 -165,-87 -284,-87 -80,0 -158,19 -233,55 -75,37 -137,86 -187,147l-282 -222c83,-108 187,-190 313,-249 125,-58 262,-87 409,-87 263,0 462,60 599,181 136,121 205,298 205,531l0 1055 -434 0 0 -174 -27 0c-51,67 -119,122 -203,164 -84,43 -181,64 -291,64zm104 -343c128,0 229,-40 304,-122 76,-82 113,-178 113,-288 -114,-53 -234,-80 -359,-80 -229,0 -343,85 -343,255 0,70 24,126 74,170 49,44 120,65 211,65zm1257 -1424l413 0 0 228 27 0c43,-80 109,-147 199,-200 89,-52 188,-79 295,-79 79,0 150,13 215,37l0 440c-60,-22 -111,-38 -153,-48 -41,-10 -85,-15 -132,-15 -130,0 -233,47 -309,141 -77,94 -115,212 -115,356l0 853 -440 0 0 -1713zm2141 2493c-218,0 -398,-49 -541,-146 -144,-98 -240,-215 -289,-351l413 -168c36,85 91,152 165,201 74,50 158,74 252,74 139,0 249,-42 331,-128 81,-85 122,-206 122,-362l0 -135 -27 0c-53,76 -124,135 -211,175 -88,40 -187,60 -299,60 -141,0 -273,-36 -395,-109 -122,-73 -220,-176 -294,-309 -74,-133 -111,-288 -111,-465 0,-177 37,-332 111,-466 74,-133 172,-236 294,-309 122,-73 254,-109 395,-109 112,0 211,20 299,60 87,41 158,99 211,175l27 0 0 -181 424 0 0 1596c0,183 -36,342 -108,477 -72,134 -173,238 -306,311 -132,73 -286,109 -463,109zm6 -1179c124,0 229,-44 316,-130 88,-86 131,-204 131,-354 0,-155 -43,-274 -129,-358 -86,-84 -192,-126 -318,-126 -125,0 -231,42 -319,127 -87,86 -131,204 -131,357 0,152 44,271 131,356 88,85 194,128 319,128zm1808 453c-181,0 -330,-53 -447,-159 -116,-107 -174,-246 -174,-419 0,-114 30,-215 90,-302 61,-88 144,-155 249,-202 105,-47 222,-70 349,-70 177,0 329,25 454,77l0 -74c0,-94 -35,-170 -106,-229 -70,-58 -165,-87 -284,-87 -80,0 -158,19 -233,55 -75,37 -138,86 -187,147l-282 -222c83,-108 187,-190 312,-249 126,-58 263,-87 410,-87 262,0 462,60 599,181 136,121 204,298 204,531l0 1055 -433 0 0 -174 -27 0c-51,67 -119,122 -203,164 -84,43 -181,64 -291,64zm104 -343c128,0 229,-40 304,-122 75,-82 113,-178 113,-288 -114,-53 -234,-80 -360,-80 -228,0 -342,85 -342,255 0,70 24,126 74,170 49,44 119,65 211,65zm1976 343c-154,0 -295,-38 -422,-116 -126,-77 -226,-185 -299,-322 -72,-138 -109,-296 -109,-472 0,-175 37,-332 109,-471 73,-139 173,-247 299,-324 127,-77 268,-116 422,-116 117,0 220,25 309,76 90,50 158,112 205,186l27 0 -27 -242 0 -659 437 0 0 2406 -410 0 0 -205 -27 0c-45,74 -112,136 -203,185 -91,49 -194,74 -311,74zm74 -406c83,0 160,-22 232,-64 72,-43 129,-102 171,-178 43,-77 64,-164 64,-262 0,-99 -21,-186 -64,-263 -42,-76 -99,-135 -171,-176 -72,-41 -149,-62 -232,-62 -81,0 -157,21 -228,62 -72,41 -129,100 -172,176 -42,77 -64,164 -64,263 0,98 22,185 64,262 43,76 100,135 172,178 71,42 147,64 228,64zm1929 406c-206,0 -363,-64 -471,-191 -107,-128 -161,-306 -161,-535l0 -1041 440 0 0 988c0,116 28,207 84,273 56,67 130,100 222,100 125,0 225,-46 299,-138 74,-92 111,-209 111,-350l0 -873 440 0 0 1713 -413 0 0 -215 -27 0c-52,83 -124,149 -217,197 -93,48 -195,72 -307,72zm2157 -27c-85,0 -163,-13 -235,-38 -72,-26 -130,-61 -175,-106 -105,-101 -158,-244 -158,-430l0 -790 -299 0 0 -376 299 0 0 -484 440 0 0 484 420 0 0 376 -420 0 0 709c0,87 19,150 58,188 31,36 85,54 161,54 42,0 78,-6 106,-17 28,-11 64,-30 109,-57l0 430c-96,38 -198,57 -306,57z"/>
   <circle class="fil1" cx="6779" cy="1566" r="222"/>
  </g>
 </g>
</svg>
