<?xml version="1.0" encoding="UTF-8"?>
<!DOCTYPE svg PUBLIC "-//W3C//DTD SVG 1.1//EN" "http://www.w3.org/Graphics/SVG/1.1/DTD/svg11.dtd">
<!-- Creator: CorelDRAW X7 -->
<svg xmlns="http://www.w3.org/2000/svg" xml:space="preserve" width="194.733mm" height="59.2666mm" version="1.1" style="shape-rendering:geometricPrecision; text-rendering:geometricPrecision; image-rendering:optimizeQuality; fill-rule:evenodd; clip-rule:evenodd"
viewBox="0 0 19473 5927"
 xmlns:xlink="http://www.w3.org/1999/xlink">
 <defs>
  <style type="text/css">
   <![CDATA[
    .fil0 {fill:#FEFEFE}
    .fil1 {fill:#00A2E9}
    .fil6 {fill:#0E7886}
    .fil2 {fill:#15BDB1}
    .fil9 {fill:#20D0C2}
    .fil4 {fill:#656767}
    .fil5 {fill:#C8CACB}
    .fil7 {fill:#DFE1E1}
    .fil8 {fill:#FBB42A}
    .fil3 {fill:#FDFEFE}
   ]]>
  </style>
 </defs>
 <g id="Layer_x0020_1">
  <metadata id="CorelCorpID_0Corel-Layer"/>
  <rect class="fil0" width="19473" height="5335"/>
  <g id="_1298495876208">
   <path class="fil1" d="M813 754c194,-11 346,-31 498,57l34 2c431,-152 677,-3 1107,0l73 1 40 0 0 420c70,18 1457,7 1654,7 182,0 350,-12 390,161 19,80 9,2082 6,2192 2,75 11,236 -14,299 -25,62 -95,125 -175,126 -44,29 -1234,13 -1397,13 13,69 35,142 53,211 25,101 17,108 86,163l270 233c2,2 3,5 3,6 1,2 3,5 3,7l4 48 -1562 -1 10 -60c33,-44 94,-88 140,-123 185,-143 183,-140 219,-281 17,-67 38,-136 50,-203 -162,0 -1352,16 -1396,-13 -83,-1 -156,-68 -178,-133 -21,-60 -14,-220 -12,-292l-6 -1175 -649 -1 0 -313 -13 31c-26,88 -44,268 -51,431l0 252c1,16 3,30 4,42 24,163 12,163 52,365 42,208 122,434 215,619 49,98 93,173 150,266l223 299c126,142 122,137 254,256 38,33 74,67 112,96 82,62 153,114 246,171 46,28 86,53 130,78 43,25 91,47 138,70 506,253 1168,320 1762,185 226,-51 418,-132 600,-223 138,-69 262,-150 384,-241 22,-16 37,-27 60,-44 171,-135 332,-301 462,-475 327,-438 513,-946 542,-1470l0 -291c-15,-283 -77,-567 -187,-844 -52,-129 -201,-434 -292,-538 -27,23 -53,94 -187,104 -156,11 -318,-46 -357,-209 -20,-84 2,-199 -19,-263 -39,-18 -35,-22 -93,-20 -2,2 -5,6 -6,8 -49,71 -109,157 -187,204 -96,58 -206,30 -294,-18 -220,-117 -162,-244 -141,-398 14,-96 -30,-60 8,-154l34 -6c5,0 21,2 26,3 22,3 44,8 63,12l319 98c180,62 184,151 396,160 -37,-71 -284,-222 -358,-271 -125,-82 -269,-149 -417,-208 -160,-64 -304,-102 -486,-139 -110,-22 -221,-36 -332,-42l-284 0c-337,18 -670,103 -980,236 -233,100 -471,263 -662,433 -37,33 -59,37 -85,84z"/>
   <path class="fil2" d="M2565 1781c391,-39 651,151 784,392 76,138 109,325 76,502 -91,484 -628,770 -1097,530 -247,-125 -437,-389 -401,-786l-1063 0 -4 1033 3620 0c-4,-257 8,-1961 -18,-2050 -84,-41 -1173,-20 -1420,-20 -112,0 -383,-13 -477,6l0 393z"/>
   <path class="fil3" d="M178 813l-3 1447 1138 0 -2 -1449c-152,-88 -304,-68 -498,-57 -43,-4 -383,47 -469,49 -70,2 -102,10 -166,10z"/>
   <path class="fil3" d="M909 4019c583,-1 1176,10 1758,10 582,0 1175,-11 1759,-10 80,-1 150,-64 175,-126 25,-63 16,-224 14,-299l-3896 0c-2,72 -9,232 12,292 22,65 95,132 178,133z"/>
   <path class="fil3" d="M1345 813l-2 1447 1105 0 4 -1447c-430,-3 -676,-152 -1107,0z"/>
   <path class="fil3" d="M2565 1781l1 126c26,-16 66,-51 96,-58l0 330 -97 -1 1 37 96 2 1 299 -387 0 7 -96 -35 0 -6 96 -287 0 8 -96 -36 -1c-36,397 154,661 401,786 469,240 1006,-46 1097,-530 33,-177 0,-364 -76,-502 -133,-241 -393,-431 -784,-392z"/>
   <path class="fil4" d="M2565 1388c94,-19 365,-6 477,-6 247,0 1336,-21 1420,20 26,89 14,1793 18,2050l-3620 0 4 -1033 -151 0 6 1175 3896 0c3,-110 13,-2112 -6,-2192 -40,-173 -208,-161 -390,-161 -197,0 -1584,11 -1654,-7l0 154z"/>
   <path class="fil5" d="M1896 4639l1542 0 -270 -233c-69,-55 -61,-62 -86,-163 -18,-69 -40,-142 -53,-211 163,0 1353,16 1397,-13 -584,-1 -1177,10 -1759,10 -582,0 -1175,-11 -1758,-10 44,29 1234,13 1396,13 -12,67 -33,136 -50,203 -36,141 -34,138 -219,281 -46,35 -107,79 -140,123z"/>
   <path class="fil6" d="M4855 1140l78 -144c10,-15 11,-19 24,-29l13 -8c2,-1 5,-2 6,-4 30,-20 36,-46 46,-90 -42,-9 -98,-44 -136,-62 -42,-21 -103,-45 -147,-61 -63,-24 -248,-93 -322,-81 -212,-9 -216,-98 -396,-160l-319 -98c-19,-4 -41,-9 -63,-12 -5,-1 -21,-3 -26,-3l-34 6c-38,94 6,58 -8,154 -21,154 -79,281 141,398 88,48 198,76 294,18 78,-47 138,-133 187,-204 1,-2 4,-6 6,-8 58,-2 54,2 93,20 21,64 -1,179 19,263 39,163 201,220 357,209 134,-10 160,-81 187,-104z"/>
   <polygon class="fil7" points="2525,814 2452,813 2448,2260 1343,2260 1345,813 1311,811 1313,2260 175,2260 178,813 105,813 104,2357 2526,2357 "/>
   <polygon class="fil8" points="64,2105 64,2418 713,2419 864,2419 1927,2419 1963,2420 2248,2420 2283,2420 2565,2419 2566,2215 2565,2178 2566,1907 2565,1781 2565,1388 2565,1234 2565,814 2525,814 2526,2357 104,2357 105,813 61,813 "/>
   <path class="fil8" d="M4780 1709l0 641 182 0c1,-91 -14,-529 8,-576 21,8 21,-15 21,39l0 407c0,57 -13,37 -24,86 79,-20 49,-175 49,-253 0,-100 2,-202 0,-302l-54 -11c0,-39 -2,-75 -13,-104l-94 -11c-64,0 -75,21 -75,84z"/>
   <polygon class="fil9" points="4795,3212 4948,3210 4949,2350 4794,2351 "/>
   <path class="fil7" d="M4872 957c4,-39 16,-10 -20,-29l-292 -67c13,73 47,211 2,284l-42 -17c-20,-99 124,-237 -166,-297 -14,210 17,310 206,351 80,17 171,11 219,-39 30,-31 93,-142 93,-186z"/>
   <path class="fil7" d="M4129 748l-180 -37c-78,13 -73,198 -168,165 -17,-37 -4,-33 21,-64 51,-64 73,-122 142,-151 -2,-2 -5,-5 -7,-7 -46,-39 -77,-42 -144,-72 -49,-22 -103,-50 -159,-60 -13,56 -45,196 -23,253 35,96 250,229 381,134 41,-30 114,-105 137,-161z"/>
   <path class="fil2" d="M2697 2220l0 296 384 0c-7,-154 -38,-201 -65,-323l-319 27z"/>
   <path class="fil2" d="M2344 2847l317 -26 1 -271 -386 0c5,100 17,228 68,297z"/>
   <path class="fil2" d="M2697 2824l327 22c22,-108 50,-159 58,-293l-40 -3 -345 0 0 274z"/>
   <path class="fil2" d="M3053 2188c10,88 53,105 63,326l287 2c-11,-156 -50,-294 -132,-396 -31,9 -182,53 -218,68z"/>
   <path class="fil2" d="M2069 2932c83,-36 140,-56 233,-76 -31,-115 -53,-172 -60,-306l-287 0c19,263 71,252 114,382z"/>
   <path class="fil2" d="M3057 2852c39,18 71,20 113,32 39,12 77,32 112,44 71,-76 111,-245 121,-374l-287 -4c-6,128 -24,194 -59,302z"/>
   <path class="fil3" d="M3438 4639l-1542 0 -10 60 1562 1 -4 -48c0,-2 -2,-5 -3,-7 0,-1 -1,-4 -3,-6z"/>
   <path class="fil2" d="M2724 3255c172,-10 321,-78 440,-184 27,-24 82,-81 97,-115 -77,-29 -129,-49 -219,-67 -50,80 -73,132 -131,200l-168 146c-16,15 -6,3 -19,20z"/>
   <path class="fil2" d="M2097 2959c80,124 299,300 537,294 -39,-54 -161,-99 -255,-255 -16,-26 -48,-86 -66,-107 -77,14 -155,37 -216,68z"/>
   <path class="fil2" d="M2359 2879c6,56 87,156 116,190 41,48 122,122 187,148l0 -359 -303 21z"/>
   <path class="fil5" d="M3634 522c56,10 110,38 159,60 67,30 98,33 144,72 2,2 5,5 7,7 -69,29 -91,87 -142,151 -25,31 -38,27 -21,64 95,33 90,-152 168,-165l180 37c25,-44 14,-62 11,-118 -120,-53 -232,-127 -381,-148 -76,-11 -83,3 -125,40z"/>
   <path class="fil2" d="M2697 3219c74,-38 129,-92 179,-144 34,-35 115,-140 122,-195l-301 -25 0 364z"/>
   <path class="fil5" d="M4354 831c290,60 146,198 166,297l42 17c45,-73 11,-211 -2,-284l292 67c36,19 24,-10 20,29 84,-78 -159,-163 -230,-183 -59,-16 -119,-33 -181,-39 -71,-7 -90,32 -107,96z"/>
   <path class="fil2" d="M3034 2153c34,-8 69,-14 105,-24l106 -45c-110,-134 -324,-289 -522,-270 21,22 60,43 87,65 35,26 54,47 87,80 53,53 90,124 137,194z"/>
   <path class="fil2" d="M2696 2182l290 -18c1,-48 -88,-150 -114,-180 -36,-40 -116,-114 -174,-138l-2 336z"/>
   <polygon class="fil2" points="2283,2420 2276,2516 2663,2516 2662,2217 2566,2215 2565,2419 "/>
   <polygon class="fil9" points="274,976 880,977 881,900 273,894 "/>
   <path class="fil2" d="M2566 1907l-1 271 97 1 0 -330c-30,7 -70,42 -96,58z"/>
   <polygon class="fil2" points="2248,2420 1963,2420 1955,2516 2242,2516 "/>
   <path class="fil8" d="M4948 3210l-153 2c9,37 20,76 28,113 17,75 2,78 80,78l45 -193z"/>
  </g>
  <path class="fil1" d="M6699 3790c-188,0 -354,-53 -498,-159 -144,-106 -245,-256 -303,-450l381 -150c30,114 81,205 153,273 72,68 162,102 270,102 90,0 167,-23 231,-68 64,-45 96,-107 96,-187 0,-80 -31,-146 -92,-197 -61,-51 -169,-105 -325,-163l-132 -48c-138,-48 -256,-122 -354,-221 -98,-99 -147,-223 -147,-373 0,-112 29,-214 87,-306 58,-92 140,-165 246,-218 106,-53 226,-79 360,-79 194,0 347,45 459,136 112,91 189,198 231,320l-357 150c-22,-66 -61,-122 -116,-167 -55,-45 -125,-67 -211,-67 -88,0 -161,20 -218,61 -57,41 -85,95 -85,161 0,64 27,118 81,163 54,45 143,89 267,131l135 45c186,64 328,148 427,253 99,105 149,243 149,413 0,140 -36,258 -108,355 -72,97 -165,170 -278,218 -113,48 -229,72 -349,72zm1533 0c-162,0 -295,-48 -399,-143 -104,-95 -156,-219 -156,-373 0,-102 27,-192 81,-270 54,-78 128,-138 222,-180 94,-42 198,-63 312,-63 158,0 293,23 405,69l0 -66c0,-84 -32,-152 -95,-204 -63,-52 -147,-78 -253,-78 -72,0 -142,16 -209,49 -67,33 -122,77 -166,131l-252 -198c74,-96 167,-170 279,-222 112,-52 234,-78 366,-78 234,0 412,54 534,162 122,108 183,266 183,474l0 942 -387 0 0 -156 -24 0c-46,60 -107,109 -182,147 -75,38 -161,57 -259,57zm93 -306c114,0 204,-37 271,-110 67,-73 101,-158 101,-256 -102,-48 -209,-72 -321,-72 -204,0 -306,76 -306,228 0,62 22,112 66,151 44,39 107,59 189,59zm1122 -1272l369 0 0 204 24 0c38,-72 97,-132 177,-179 80,-47 168,-70 264,-70 70,0 134,11 192,33l0 393c-54,-20 -100,-35 -137,-44 -37,-9 -76,-13 -118,-13 -116,0 -208,42 -276,126 -68,84 -102,190 -102,318l0 762 -393 0 0 -1530zm2361 1578c-206,0 -396,-49 -569,-146 -173,-97 -310,-231 -412,-402 -102,-171 -153,-362 -153,-574 0,-212 51,-404 153,-575 102,-171 239,-305 412,-402 173,-97 363,-145 569,-145 168,0 321,29 460,88 139,59 259,143 359,251l-279 273c-72,-76 -152,-133 -239,-171 -87,-38 -188,-57 -304,-57 -132,0 -253,30 -363,91 -110,61 -198,148 -263,261 -65,113 -97,242 -97,386 0,144 33,272 99,385 66,113 154,200 265,261 111,61 233,92 365,92 200,0 364,-59 492,-177 40,-36 75,-82 105,-138 30,-56 52,-117 66,-183l-675 0 0 -345 1053 0c14,56 21,119 21,189 0,142 -22,274 -65,396 -43,122 -108,229 -196,321 -96,104 -212,183 -348,238 -136,55 -288,83 -456,83zm1821 0c-162,0 -295,-48 -399,-143 -104,-95 -156,-219 -156,-373 0,-102 27,-192 81,-270 54,-78 128,-138 222,-180 94,-42 198,-63 312,-63 158,0 293,23 405,69l0 -66c0,-84 -31,-152 -94,-204 -63,-52 -148,-78 -254,-78 -72,0 -141,16 -208,49 -67,33 -123,77 -167,131l-252 -198c74,-96 167,-170 279,-222 112,-52 234,-78 366,-78 234,0 412,54 534,162 122,108 183,266 183,474l0 942 -387 0 0 -156 -24 0c-46,60 -106,109 -181,147 -75,38 -162,57 -260,57zm93 -306c114,0 205,-37 272,-110 67,-73 100,-158 100,-256 -102,-48 -209,-72 -321,-72 -204,0 -306,76 -306,228 0,62 22,112 66,151 44,39 107,59 189,59zm1764 306c-138,0 -263,-35 -376,-104 -113,-69 -202,-165 -267,-288 -65,-123 -98,-263 -98,-421 0,-156 33,-296 98,-420 65,-124 154,-221 267,-290 113,-69 238,-103 376,-103 104,0 196,22 276,67 80,45 141,101 183,167l24 0 -24 -216 0 -589 390 0 0 2149 -366 0 0 -183 -24 0c-40,66 -100,121 -181,165 -81,44 -174,66 -278,66zm66 -363c74,0 143,-19 207,-57 64,-38 115,-91 153,-159 38,-68 57,-146 57,-234 0,-88 -19,-166 -57,-234 -38,-68 -89,-121 -153,-158 -64,-37 -133,-55 -207,-55 -72,0 -140,18 -204,55 -64,37 -115,90 -153,158 -38,68 -57,146 -57,234 0,88 19,166 57,234 38,68 89,121 153,159 64,38 132,57 204,57zm1722 363c-184,0 -324,-57 -420,-171 -96,-114 -144,-273 -144,-477l0 -930 393 0 0 882c0,104 25,185 75,244 50,59 116,89 198,89 112,0 201,-41 267,-123 66,-82 99,-186 99,-312l0 -780 393 0 0 1530 -369 0 0 -192 -24 0c-46,74 -110,132 -193,175 -83,43 -175,65 -275,65zm1926 -24c-76,0 -146,-12 -210,-35 -64,-23 -116,-54 -156,-94 -94,-90 -141,-218 -141,-384l0 -705 -267 0 0 -336 267 0 0 -432 393 0 0 432 375 0 0 336 -375 0 0 633c0,78 17,134 51,168 28,32 76,48 144,48 38,0 70,-5 95,-15 25,-10 57,-27 97,-51l0 384c-86,34 -177,51 -273,51z"/>
 </g>
</svg>
